<svg xmlns="http://www.w3.org/2000/svg" version="1.1" width="312px" height="229px" style="shape-rendering:geometricPrecision; text-rendering:geometricPrecision; image-rendering:optimizeQuality; fill-rule:evenodd; clip-rule:evenodd" xmlns:xlink="http://www.w3.org/1999/xlink">
<g></g>
<g><path style="opacity:1" fill="#e9f1c6" d="M 207.5,31.5 C 205.5,31.5 203.5,31.5 201.5,31.5C 200.833,31.5 200.167,31.5 199.5,31.5C 180.144,29.7558 161.144,31.2558 142.5,36C 139.845,36.727 137.512,37.8936 135.5,39.5C 132.914,40.48 130.247,40.8134 127.5,40.5C 130.543,39.0652 133.543,37.2319 136.5,35C 141.005,34.7375 145.339,33.7375 149.5,32C 152.817,31.5017 156.15,31.335 159.5,31.5C 159.5,30.5 159.5,29.5 159.5,28.5C 163.183,28.0534 166.85,27.3867 170.5,26.5C 180.098,28.0499 189.765,28.8832 199.5,29C 202.379,29.546 205.046,30.3794 207.5,31.5 Z" data-index="1"></path></g>
<g><path style="opacity:1" fill="#f2f8ca" d="M 207.5,31.5 C 212.485,30.9598 217.151,31.7931 221.5,34C 224.5,34.3333 227.5,34.6667 230.5,35C 231.191,36.0674 231.691,37.2341 232,38.5C 234.191,39.8334 236.024,41.5 237.5,43.5C 227.864,38.5119 217.864,34.5119 207.5,31.5 Z" data-index="2"></path></g>
<g><path style="opacity:1" fill="#63971e" d="M 199.5,31.5 C 198.699,33.5084 197.366,34.0084 195.5,33C 196.579,33.956 197.745,34.7894 199,35.5C 199.515,37.9388 199.015,38.1055 197.5,36C 193.147,35.4674 192.814,35.8007 196.5,37C 196.167,37.3333 195.833,37.6667 195.5,38C 197.795,39.6761 198.962,41.8427 199,44.5C 197.927,43.7203 196.76,43.887 195.5,45C 197.538,47.5797 199.538,47.7463 201.5,45.5C 202.696,45.8457 202.696,46.3457 201.5,47C 202.449,47.6172 203.282,47.4506 204,46.5C 204.699,48.0738 204.365,49.4071 203,50.5C 202.667,49.8333 202.333,49.1667 202,48.5C 201.259,49.6405 200.425,49.6405 199.5,48.5C 198.713,49.2421 198.047,50.0754 197.5,51C 198.636,52.5298 199.636,53.8631 200.5,55C 198.82,55.0343 197.32,55.201 196,55.5C 195.667,54.5 195.333,53.5 195,52.5C 194.333,53.8333 193.667,53.8333 193,52.5C 192.333,53.1667 192.333,53.8333 193,54.5C 197.592,57.5473 202.426,60.214 207.5,62.5C 208.354,61.0521 209.354,59.7187 210.5,58.5C 210.167,57.8333 209.833,57.1667 209.5,56.5C 211.197,55.6364 212.363,54.3031 213,52.5C 213.986,51.8288 215.153,51.8288 216.5,52.5C 215.862,54.46 215.862,56.2933 216.5,58C 218.492,58.5743 219.992,59.741 221,61.5C 222.019,60.3128 223.186,59.3128 224.5,58.5C 225.696,58.8457 225.696,59.3457 224.5,60C 225.5,60.3333 226.5,60.6667 227.5,61C 226.655,62.5581 227.321,63.5581 229.5,64C 228.409,65.5501 227.076,66.7168 225.5,67.5C 224.448,69.256 222.781,69.9227 220.5,69.5C 212.886,66.6136 205.386,63.2803 198,59.5C 196.324,62.16 194.657,62.16 193,59.5C 192,60.8333 191,60.8333 190,59.5C 189.544,60.7441 190.044,61.5774 191.5,62C 190.687,63.3139 189.687,64.4805 188.5,65.5C 188.846,66.6956 189.346,66.6956 190,65.5C 190.483,66.448 190.649,67.448 190.5,68.5C 188.876,68.6399 187.71,67.9733 187,66.5C 185.951,67.5171 184.784,67.6838 183.5,67C 182.833,65.6667 181.833,64.6667 180.5,64C 181.5,63.6667 182.5,63.3333 183.5,63C 180.953,61.684 180.287,59.8507 181.5,57.5C 184.063,56.4617 186.73,55.6284 189.5,55C 186.137,54.4552 183.137,53.1219 180.5,51C 182.045,49.3123 183.045,47.3123 183.5,45C 183,44.5 182.5,44 182,43.5C 181.24,45.4965 180.74,47.1632 180.5,48.5C 179.269,47.3493 179.269,46.1827 180.5,45C 179.007,43.6319 177.507,43.4652 176,44.5C 175.683,42.6992 175.016,42.3659 174,43.5C 172.086,42.324 172.252,41.324 174.5,40.5C 173.349,39.269 172.183,39.269 171,40.5C 170.385,38.8839 169.385,37.5505 168,36.5C 167.667,37.1667 167.333,37.8333 167,38.5C 165.951,37.4829 164.784,37.3162 163.5,38C 167.341,39.1649 168.175,41.3315 166,44.5C 165.667,44.1667 165.333,43.8333 165,43.5C 163.871,46.9789 161.704,48.1455 158.5,47C 159.223,49.1119 160.223,51.1119 161.5,53C 160.36,55.2765 159.027,55.6099 157.5,54C 159.569,53.6758 159.902,52.8425 158.5,51.5C 157.635,50.4173 156.635,50.2506 155.5,51C 157.991,51.6259 157.991,52.4593 155.5,53.5C 156.309,55.0709 156.643,56.7376 156.5,58.5C 158.861,58.3259 161.194,57.9926 163.5,57.5C 163.5,58.5 163.5,59.5 163.5,60.5C 167.339,60.6121 167.339,61.2787 163.5,62.5C 162.672,61.5853 161.672,60.9186 160.5,60.5C 157.457,63.7456 153.791,66.0789 149.5,67.5C 148.305,67.1344 147.639,66.301 147.5,65C 148.848,59.7974 152.014,58.6308 157,61.5C 157.167,61.1667 157.333,60.8333 157.5,60.5C 154.72,58.883 151.72,57.7163 148.5,57C 147.315,55.647 145.981,54.4803 144.5,53.5C 144.833,53.1667 145.167,52.8333 145.5,52.5C 147.713,55.2114 150.546,56.878 154,57.5C 154.5,57.1667 155,56.8333 155.5,56.5C 154.471,56.7036 153.471,56.2036 152.5,55C 153.167,54.6667 153.833,54.3333 154.5,54C 152.91,52.9542 151.41,51.7875 150,50.5C 149.333,51.1667 148.667,51.8333 148,52.5C 147.814,50.0995 147.314,47.7662 146.5,45.5C 142.687,44.126 143.02,43.2926 147.5,43C 145.352,41.7574 143.185,41.2574 141,41.5C 139.189,42.4235 139.355,43.2569 141.5,44C 140.833,44.3333 140.167,44.6667 139.5,45C 141.813,45.662 144.146,46.162 146.5,46.5C 146.66,48.1992 146.494,49.8659 146,51.5C 144.807,50.0215 144.307,48.6882 144.5,47.5C 142.511,49.5308 140.344,50.1975 138,49.5C 137.667,50.1667 137.333,50.8333 137,51.5C 133.788,50.0077 133.288,48.1744 135.5,46C 135.167,45.8333 134.833,45.6667 134.5,45.5C 132.509,46.4269 130.509,46.5936 128.5,46C 128.167,46.3333 127.833,46.6667 127.5,47C 131.19,47.4244 131.357,48.2577 128,49.5C 126.663,48.2351 125.163,47.7351 123.5,48C 123.833,48.3333 124.167,48.6667 124.5,49C 121.972,50.0174 121.972,51.1841 124.5,52.5C 123.271,53.2811 121.938,53.7811 120.5,54C 123.351,55.2886 126.351,55.7886 129.5,55.5C 129.649,56.552 129.483,57.552 129,58.5C 125.851,56.6375 122.351,55.9709 118.5,56.5C 117.622,52.3751 115.955,51.8751 113.5,55C 114.833,55.3333 116.167,55.6667 117.5,56C 116.151,56.7724 115.318,57.9391 115,59.5C 114.257,57.3553 113.424,57.1886 112.5,59C 113,60.5 113.5,62 114,63.5C 115.667,60.3426 117.167,60.176 118.5,63C 116.233,64.0812 116.066,65.5812 118,67.5C 118.654,68.6956 119.154,68.6956 119.5,67.5C 118.674,66.549 118.508,65.549 119,64.5C 120.046,66.0905 121.213,67.5905 122.5,69C 119.446,69.8214 116.446,69.6548 113.5,68.5C 114.376,67.7492 115.376,67.2492 116.5,67C 114.585,65.1446 112.418,63.6446 110,62.5C 108.984,63.6341 108.317,63.3008 108,61.5C 107.915,63.0846 107.749,64.4179 107.5,65.5C 105.545,63.3316 104.879,60.9983 105.5,58.5C 102.539,59.1831 102.205,60.0164 104.5,61C 102.109,62.3086 102.109,63.3086 104.5,64C 100.639,64.5691 100.639,65.4024 104.5,66.5C 102.682,70.2858 101.182,69.9525 100,65.5C 99.4309,69.3605 98.5976,69.3605 97.5,65.5C 95.2664,67.9601 93.2664,67.6268 91.5,64.5C 93.3316,63.9432 94.6649,62.9432 95.5,61.5C 95.5011,60.2455 95.8344,58.9122 96.5,57.5C 99.374,56.1562 102.374,54.9895 105.5,54C 106.252,53.3292 106.586,52.4959 106.5,51.5C 107.391,50.8902 108.391,50.5569 109.5,50.5C 115.86,47.7238 121.86,44.3905 127.5,40.5C 130.247,40.8134 132.914,40.48 135.5,39.5C 137.512,37.8936 139.845,36.727 142.5,36C 161.144,31.2558 180.144,29.7558 199.5,31.5 Z" data-index="3"></path></g>
<g><path style="opacity:1" fill="#f3f9d8" d="M 127.5,40.5 C 121.86,44.3905 115.86,47.7238 109.5,50.5C 110.72,48.7179 111.386,46.7179 111.5,44.5C 116.561,42.1479 121.894,40.8145 127.5,40.5 Z" data-index="4"></path></g>
<g><path style="opacity:1" fill="#759f2a" d="M 201.5,31.5 C 203.5,31.5 205.5,31.5 207.5,31.5C 217.864,34.5119 227.864,38.5119 237.5,43.5C 237.833,44.1667 238.167,44.8333 238.5,45.5C 236.81,47.521 234.977,47.1877 233,44.5C 230.122,45.7909 230.288,47.2909 233.5,49C 233.167,49.1667 232.833,49.3333 232.5,49.5C 228.8,46.1645 224.967,43.8312 221,42.5C 219.396,43.0677 218.73,44.0677 219,45.5C 220.011,44.6634 221.178,44.33 222.5,44.5C 222.714,46.1439 222.38,47.6439 221.5,49C 223.917,50.1437 224.584,51.8103 223.5,54C 227.515,56.1067 227.182,56.7734 222.5,56C 220.937,54.0527 218.937,52.886 216.5,52.5C 215.129,48.9417 215.796,48.6084 218.5,51.5C 218.833,51.1667 219.167,50.8333 219.5,50.5C 218.902,49.2054 218.402,47.8721 218,46.5C 217.667,47.1667 217.333,47.8333 217,48.5C 216.805,46.7928 216.805,45.1261 217,43.5C 214.833,41.6667 212.667,39.8333 210.5,38C 211.738,38.0773 212.738,37.9106 213.5,37.5C 212.5,36.5 211.5,35.5 210.5,34.5C 209.038,35.4709 207.705,35.1376 206.5,33.5C 205.749,34.376 205.249,35.376 205,36.5C 204.667,36.1667 204.333,35.8333 204,35.5C 203.692,36.3081 203.192,36.9747 202.5,37.5C 202.94,36.0475 202.274,34.8808 200.5,34C 202.085,33.9152 203.418,33.7486 204.5,33.5C 203.398,32.8243 202.398,32.1577 201.5,31.5 Z" data-index="5"></path></g>
<g><path style="opacity:1" fill="#eef5d3" d="M 250.5,52.5 C 245.868,51.1861 241.868,48.8528 238.5,45.5C 238.167,44.8333 237.833,44.1667 237.5,43.5C 238.117,43.3893 238.617,43.056 239,42.5C 242.111,44.4868 245.278,46.1534 248.5,47.5C 248.392,49.5138 249.058,51.1805 250.5,52.5 Z" data-index="6"></path></g>
<g><path style="opacity:1" fill="#e1dc90" d="M 287.5,51.5 C 286.833,51.5 286.167,51.5 285.5,51.5C 280.786,51.3531 276.119,51.6864 271.5,52.5C 273.743,51.1883 276.41,50.5217 279.5,50.5C 282.355,50.5025 285.022,50.8359 287.5,51.5 Z" data-index="7"></path></g>
<g><path style="opacity:1" fill="#598a16" d="M 199.5,31.5 C 200.167,31.5 200.833,31.5 201.5,31.5C 202.398,32.1577 203.398,32.8243 204.5,33.5C 203.418,33.7486 202.085,33.9152 200.5,34C 202.274,34.8808 202.94,36.0475 202.5,37.5C 203.192,36.9747 203.692,36.3081 204,35.5C 204.333,35.8333 204.667,36.1667 205,36.5C 205.249,35.376 205.749,34.376 206.5,33.5C 207.705,35.1376 209.038,35.4709 210.5,34.5C 211.5,35.5 212.5,36.5 213.5,37.5C 212.738,37.9106 211.738,38.0773 210.5,38C 212.667,39.8333 214.833,41.6667 217,43.5C 216.805,45.1261 216.805,46.7928 217,48.5C 217.333,47.8333 217.667,47.1667 218,46.5C 218.402,47.8721 218.902,49.2054 219.5,50.5C 219.167,50.8333 218.833,51.1667 218.5,51.5C 215.796,48.6084 215.129,48.9417 216.5,52.5C 215.153,51.8288 213.986,51.8288 213,52.5C 212.363,54.3031 211.197,55.6364 209.5,56.5C 209.833,57.1667 210.167,57.8333 210.5,58.5C 209.354,59.7187 208.354,61.0521 207.5,62.5C 202.426,60.214 197.592,57.5473 193,54.5C 192.333,53.8333 192.333,53.1667 193,52.5C 193.667,53.8333 194.333,53.8333 195,52.5C 195.333,53.5 195.667,54.5 196,55.5C 197.32,55.201 198.82,55.0343 200.5,55C 199.636,53.8631 198.636,52.5298 197.5,51C 198.047,50.0754 198.713,49.2421 199.5,48.5C 200.425,49.6405 201.259,49.6405 202,48.5C 202.333,49.1667 202.667,49.8333 203,50.5C 204.365,49.4071 204.699,48.0738 204,46.5C 203.282,47.4506 202.449,47.6172 201.5,47C 202.696,46.3457 202.696,45.8457 201.5,45.5C 199.538,47.7463 197.538,47.5797 195.5,45C 196.76,43.887 197.927,43.7203 199,44.5C 198.962,41.8427 197.795,39.6761 195.5,38C 195.833,37.6667 196.167,37.3333 196.5,37C 192.814,35.8007 193.147,35.4674 197.5,36C 199.015,38.1055 199.515,37.9388 199,35.5C 197.745,34.7894 196.579,33.956 195.5,33C 197.366,34.0084 198.699,33.5084 199.5,31.5 Z" data-index="8"></path></g>
<g><path style="opacity:1" fill="#abaa36" d="M 285.5,51.5 C 281.21,53.3215 276.543,54.6549 271.5,55.5C 271.265,54.9033 270.765,54.5699 270,54.5C 265.802,55.4389 261.636,56.4389 257.5,57.5C 257.833,56.8333 258.167,56.1667 258.5,55.5C 260.786,55.405 262.786,54.7384 264.5,53.5C 266.806,53.0074 269.139,52.6741 271.5,52.5C 276.119,51.6864 280.786,51.3531 285.5,51.5 Z" data-index="9"></path></g>
<g><path style="opacity:1" fill="#f4fac1" d="M 251.5,52.5 C 255.798,53.1995 260.131,53.5328 264.5,53.5C 262.786,54.7384 260.786,55.405 258.5,55.5C 255.759,55.2927 253.426,54.2927 251.5,52.5 Z" data-index="10"></path></g>
<g><path style="opacity:1" fill="#e0f2b0" d="M 106.5,51.5 C 106.586,52.4959 106.252,53.3292 105.5,54C 102.374,54.9895 99.374,56.1562 96.5,57.5C 97.6935,56.7281 98.6935,55.7281 99.5,54.5C 101.915,53.6948 104.249,52.6948 106.5,51.5 Z" data-index="11"></path></g>
<g><path style="opacity:1" fill="#5e881d" d="M 238.5,45.5 C 241.868,48.8528 245.868,51.1861 250.5,52.5C 250.833,52.5 251.167,52.5 251.5,52.5C 253.426,54.2927 255.759,55.2927 258.5,55.5C 258.167,56.1667 257.833,56.8333 257.5,57.5C 250.294,59.9493 243.294,62.616 236.5,65.5C 232.899,66.4633 229.233,67.13 225.5,67.5C 227.076,66.7168 228.409,65.5501 229.5,64C 227.321,63.5581 226.655,62.5581 227.5,61C 226.5,60.6667 225.5,60.3333 224.5,60C 225.696,59.3457 225.696,58.8457 224.5,58.5C 223.186,59.3128 222.019,60.3128 221,61.5C 219.992,59.741 218.492,58.5743 216.5,58C 215.862,56.2933 215.862,54.46 216.5,52.5C 218.937,52.886 220.937,54.0527 222.5,56C 227.182,56.7734 227.515,56.1067 223.5,54C 224.584,51.8103 223.917,50.1437 221.5,49C 222.38,47.6439 222.714,46.1439 222.5,44.5C 221.178,44.33 220.011,44.6634 219,45.5C 218.73,44.0677 219.396,43.0677 221,42.5C 224.967,43.8312 228.8,46.1645 232.5,49.5C 232.833,49.3333 233.167,49.1667 233.5,49C 230.288,47.2909 230.122,45.7909 233,44.5C 234.977,47.1877 236.81,47.521 238.5,45.5 Z" data-index="12"></path></g>
<g><path style="opacity:1" fill="#828020" d="M 285.5,51.5 C 286.167,51.5 286.833,51.5 287.5,51.5C 287.5,52.8333 287.5,54.1667 287.5,55.5C 279.326,55.2116 271.326,56.2116 263.5,58.5C 265.936,57.129 268.603,56.129 271.5,55.5C 276.543,54.6549 281.21,53.3215 285.5,51.5 Z" data-index="13"></path></g>
<g><path style="opacity:1" fill="#f5fada" d="M 99.5,54.5 C 98.6935,55.7281 97.6935,56.7281 96.5,57.5C 95.8344,58.9122 95.5011,60.2455 95.5,61.5C 93.6916,61.4914 92.0249,61.9914 90.5,63C 87.4355,66.5949 84.1022,69.9282 80.5,73C 79.552,73.4828 78.552,73.6495 77.5,73.5C 77.9465,76.0101 77.2798,78.0101 75.5,79.5C 75.3379,77.4727 75.5045,75.4727 76,73.5C 78.7397,70.4915 81.573,67.4915 84.5,64.5C 85.325,63.6143 86.325,63.281 87.5,63.5C 87.178,61.2776 87.8446,59.4443 89.5,58C 92.8522,56.8304 96.1855,55.6637 99.5,54.5 Z" data-index="14"></path></g>
<g><path style="opacity:1" fill="#bee03b" d="M 271.5,55.5 C 268.603,56.129 265.936,57.129 263.5,58.5C 259.252,58.3321 256.085,59.9988 254,63.5C 252.916,61.2177 251.416,60.8843 249.5,62.5C 247.158,62.5041 245.158,63.3375 243.5,65C 241.19,65.4966 238.857,65.6633 236.5,65.5C 243.294,62.616 250.294,59.9493 257.5,57.5C 261.636,56.4389 265.802,55.4389 270,54.5C 270.765,54.5699 271.265,54.9033 271.5,55.5 Z" data-index="15"></path></g>
<g><path style="opacity:1" fill="#5a8b1b" d="M 220.5,69.5 C 220.5,70.1667 220.5,70.8333 220.5,71.5C 216.342,72.4983 212.342,73.9983 208.5,76C 205.445,76.6342 202.445,76.4675 199.5,75.5C 198.778,75.9175 198.278,76.5842 198,77.5C 196.802,74.6338 194.635,72.8005 191.5,72C 186.892,70.5148 182.226,69.3481 177.5,68.5C 178.164,70.8669 179.497,72.8669 181.5,74.5C 182.396,73.4937 183.062,73.4937 183.5,74.5C 183.861,77.107 183.361,79.4403 182,81.5C 183.585,80.6243 184.585,79.2909 185,77.5C 185.783,79.4335 185.283,80.9335 183.5,82C 185.645,82.7431 185.811,83.5765 184,84.5C 182.765,83.3845 181.598,83.3845 180.5,84.5C 180.002,83.3966 179.669,82.3966 179.5,81.5C 177.776,82.6613 176.11,82.4947 174.5,81C 177.074,81.1646 179.408,80.1646 181.5,78C 179.888,77.2797 178.388,77.4464 177,78.5C 175.491,76.2903 173.658,74.457 171.5,73C 171.766,69.7993 170.6,69.6327 168,72.5C 167.586,72.0426 167.086,71.7093 166.5,71.5C 165.573,73.1128 164.739,74.7795 164,76.5C 163.316,75.2161 163.483,74.0495 164.5,73C 162.246,71.9461 161.913,70.4461 163.5,68.5C 163.167,67.5 162.5,66.8333 161.5,66.5C 161.446,67.5301 161.112,68.6967 160.5,70C 162.891,72.8743 162.558,74.3743 159.5,74.5C 159.5,75.5 159.5,76.5 159.5,77.5C 160.552,77.3505 161.552,77.5172 162.5,78C 160.432,78.6869 158.432,78.5202 156.5,77.5C 155.425,79.9023 154.258,82.2356 153,84.5C 153.077,83.2624 152.911,82.2624 152.5,81.5C 151.571,82.6888 151.238,84.0222 151.5,85.5C 152.552,85.3505 153.552,85.5172 154.5,86C 152.382,86.2602 150.716,87.2602 149.5,89C 154.288,87.8468 154.788,89.0135 151,92.5C 149.092,89.6677 148.259,90.001 148.5,93.5C 149.791,93.2627 150.791,93.596 151.5,94.5C 146.581,93.9495 141.748,92.9495 137,91.5C 135.893,91.5852 134.893,91.9186 134,92.5C 133.251,91.365 133.417,90.365 134.5,89.5C 138.799,90.8282 143.132,91.6615 147.5,92C 144.197,90.9932 143.03,88.8265 144,85.5C 145.243,86.3363 146.41,86.003 147.5,84.5C 146.302,84.0604 145.135,83.727 144,83.5C 142.956,84.6226 142.29,85.9559 142,87.5C 141,84.5 140,81.5 139,78.5C 138.5,79 138,79.5 137.5,80C 138.517,81.0495 138.684,82.2161 138,83.5C 137.444,81.4049 136.944,81.2382 136.5,83C 137.749,84.5385 137.582,85.7052 136,86.5C 134.943,85.3726 133.777,84.8726 132.5,85C 133.517,86.0495 133.684,87.2161 133,88.5C 131,85.8333 129,83.1667 127,80.5C 127.333,82.1667 127.667,83.8333 128,85.5C 127.196,86.8045 126.029,87.4712 124.5,87.5C 123.136,86.9569 121.803,86.7902 120.5,87C 124.351,88.4752 128.351,89.6419 132.5,90.5C 132.333,90.8333 132.167,91.1667 132,91.5C 126.892,89.966 121.392,89.2994 115.5,89.5C 115.336,92.1873 115.503,94.854 116,97.5C 116.333,95.1667 116.667,92.8333 117,90.5C 118.526,95.627 119.526,95.627 120,90.5C 120.896,93.025 120.396,95.1917 118.5,97C 120.047,97.3334 121.38,96.8334 122.5,95.5C 123.672,95.9186 124.672,96.5853 125.5,97.5C 124.388,98.2652 123.721,99.2652 123.5,100.5C 122.25,100.577 121.417,101.244 121,102.5C 117.668,101.503 115.168,99.5032 113.5,96.5C 113.467,97.989 112.967,99.3224 112,100.5C 110.691,98.1088 109.691,98.1088 109,100.5C 107.215,99.7599 105.382,99.0933 103.5,98.5C 102.396,99.6313 102.729,100.465 104.5,101C 103.207,101.49 101.873,101.657 100.5,101.5C 101.5,110.66 100.833,110.66 98.5,101.5C 96.556,100.811 94.556,100.311 92.5,100C 93.8333,99.6667 95.1667,99.3333 96.5,99C 94.6667,98.5 93.5,97.3333 93,95.5C 91.2458,97.25 89.0792,97.9167 86.5,97.5C 86.7394,95.5328 86.4061,93.6995 85.5,92C 88.4088,89.9651 90.9088,90.4651 93,93.5C 93.49,92.2068 93.6567,90.8734 93.5,89.5C 96.1656,89.067 98.8323,88.567 101.5,88C 99.5,87.6667 97.5,87.3333 95.5,87C 96.5733,85.7496 96.5733,84.4162 95.5,83C 95.7591,81.7387 96.4258,80.7387 97.5,80C 96.944,79.6174 96.6107,79.1174 96.5,78.5C 97.5498,78.0954 97.5498,77.4288 96.5,76.5C 97.7757,75.3554 99.109,75.3554 100.5,76.5C 101.799,75.91 102.632,74.91 103,73.5C 104.044,74.6226 104.71,75.9559 105,77.5C 107.417,75.9579 109.917,74.4579 112.5,73C 111.396,71.8687 111.729,71.0354 113.5,70.5C 115.134,70.968 116.3,71.968 117,73.5C 117.483,72.552 117.649,71.552 117.5,70.5C 119.942,70.1192 120.609,70.7859 119.5,72.5C 120.903,74.7305 122.07,77.0639 123,79.5C 123.5,79 124,78.5 124.5,78C 123.624,76.414 122.624,74.914 121.5,73.5C 122.167,73.1667 122.833,72.8333 123.5,72.5C 123.291,71.914 122.957,71.414 122.5,71C 124.333,71.1667 126.167,71.3333 128,71.5C 129.816,70.6705 131.649,69.8372 133.5,69C 130.741,68.7978 127.908,68.9645 125,69.5C 124.5,69 124,68.5 123.5,68C 126.758,67.7883 129.924,67.2883 133,66.5C 133.414,66.9574 133.914,67.2907 134.5,67.5C 137.406,64.1911 136.573,62.1911 132,61.5C 131.598,60.1279 131.098,58.7946 130.5,57.5C 130.887,56.2801 131.72,55.6135 133,55.5C 136.048,55.6143 139.048,55.6143 142,55.5C 142.853,57.1247 143.853,57.4581 145,56.5C 144.647,58.2278 144.481,59.8945 144.5,61.5C 145.5,61.5 146.5,61.5 147.5,61.5C 146.064,62.9337 144.398,64.1004 142.5,65C 143.167,65.3333 143.833,65.6667 144.5,66C 143.289,66.8928 143.289,67.7261 144.5,68.5C 145.281,67.2713 145.781,65.938 146,64.5C 146.309,65.7659 146.809,66.9326 147.5,68C 146.421,68.956 145.255,69.7894 144,70.5C 141.913,69.2062 139.746,68.0395 137.5,67C 138.696,66.3457 138.696,65.8457 137.5,65.5C 136.167,66.5 136.167,67.5 137.5,68.5C 144.143,70.8795 150.643,73.5461 157,76.5C 157.5,76.3333 158,76.1667 158.5,76C 156.513,74.6811 155.346,72.8477 155,70.5C 154.667,71.5 154.333,72.5 154,73.5C 152.883,72.0506 152.216,70.3839 152,68.5C 147.727,72.7014 146.894,72.3681 149.5,67.5C 153.791,66.0789 157.457,63.7456 160.5,60.5C 161.672,60.9186 162.672,61.5853 163.5,62.5C 167.339,61.2787 167.339,60.6121 163.5,60.5C 163.5,59.5 163.5,58.5 163.5,57.5C 161.194,57.9926 158.861,58.3259 156.5,58.5C 156.643,56.7376 156.309,55.0709 155.5,53.5C 157.991,52.4593 157.991,51.6259 155.5,51C 156.635,50.2506 157.635,50.4173 158.5,51.5C 159.902,52.8425 159.569,53.6758 157.5,54C 159.027,55.6099 160.36,55.2765 161.5,53C 160.223,51.1119 159.223,49.1119 158.5,47C 161.704,48.1455 163.871,46.9789 165,43.5C 165.333,43.8333 165.667,44.1667 166,44.5C 168.175,41.3315 167.341,39.1649 163.5,38C 164.784,37.3162 165.951,37.4829 167,38.5C 167.333,37.8333 167.667,37.1667 168,36.5C 169.385,37.5505 170.385,38.8839 171,40.5C 172.183,39.269 173.349,39.269 174.5,40.5C 172.252,41.324 172.086,42.324 174,43.5C 175.016,42.3659 175.683,42.6992 176,44.5C 177.507,43.4652 179.007,43.6319 180.5,45C 179.269,46.1827 179.269,47.3493 180.5,48.5C 180.74,47.1632 181.24,45.4965 182,43.5C 182.5,44 183,44.5 183.5,45C 183.045,47.3123 182.045,49.3123 180.5,51C 183.137,53.1219 186.137,54.4552 189.5,55C 186.73,55.6284 184.063,56.4617 181.5,57.5C 180.287,59.8507 180.953,61.684 183.5,63C 182.5,63.3333 181.5,63.6667 180.5,64C 181.833,64.6667 182.833,65.6667 183.5,67C 184.784,67.6838 185.951,67.5171 187,66.5C 187.71,67.9733 188.876,68.6399 190.5,68.5C 190.649,67.448 190.483,66.448 190,65.5C 189.346,66.6956 188.846,66.6956 188.5,65.5C 189.687,64.4805 190.687,63.3139 191.5,62C 190.044,61.5774 189.544,60.7441 190,59.5C 191,60.8333 192,60.8333 193,59.5C 194.657,62.16 196.324,62.16 198,59.5C 205.386,63.2803 212.886,66.6136 220.5,69.5 Z" data-index="16"></path></g>
<g><path style="opacity:1" fill="#64981d" d="M 168.5,48.5 C 170.086,49.4132 171.586,49.4132 173,48.5C 173,49.8333 173,51.1667 173,52.5C 174.402,50.0266 175.902,50.0266 177.5,52.5C 178.086,52.2907 178.586,51.9574 179,51.5C 179.991,53.4473 180.325,55.4473 180,57.5C 179,58.8333 178,58.8333 177,57.5C 176,59.5 175,61.5 174,63.5C 173.257,61.5594 173.424,59.7261 174.5,58C 172.59,58.6243 170.59,59.4576 168.5,60.5C 167.396,59.3687 167.729,58.5354 169.5,58C 168.167,57.3333 167.167,56.3333 166.5,55C 166.075,52.7081 166.742,50.5414 168.5,48.5 Z" data-index="17"></path></g>
<g><path style="opacity:1" fill="#bae651" d="M 236.5,65.5 C 233.352,67.4293 230.186,69.4293 227,71.5C 224.973,71.0137 222.807,71.0137 220.5,71.5C 220.5,70.8333 220.5,70.1667 220.5,69.5C 222.781,69.9227 224.448,69.256 225.5,67.5C 229.233,67.13 232.899,66.4633 236.5,65.5 Z" data-index="18"></path></g>
<g><path style="opacity:1" fill="#5f8220" d="M 263.5,58.5 C 259.513,62.807 256.847,67.807 255.5,73.5C 255.167,73.5 254.833,73.5 254.5,73.5C 253.849,74.0906 253.182,74.7573 252.5,75.5C 251.494,75.0623 251.494,74.3957 252.5,73.5C 251.24,72.6184 250.074,71.6184 249,70.5C 248.667,71.1667 248.333,71.8333 248,72.5C 247.802,69.4215 248.635,66.5882 250.5,64C 249.944,63.6174 249.611,63.1174 249.5,62.5C 251.416,60.8843 252.916,61.2177 254,63.5C 256.085,59.9988 259.252,58.3321 263.5,58.5 Z" data-index="19"></path></g>
<g><path style="opacity: 1;" fill="#518118" d="M 199.5,75.5 C 199.953,76.4584 200.619,77.2917 201.5,78C 196.167,80.6667 190.833,83.3333 185.5,86C 183.765,86.6514 182.098,86.4847 180.5,85.5C 179.707,86.3554 180.04,87.1887 181.5,88C 175.783,90.4662 170.116,93.1329 164.5,96C 160.096,96.2576 155.762,95.7576 151.5,94.5C 150.791,93.596 149.791,93.2627 148.5,93.5C 148.259,90.001 149.092,89.6677 151,92.5C 154.788,89.0135 154.288,87.8468 149.5,89C 150.716,87.2602 152.382,86.2602 154.5,86C 153.552,85.5172 152.552,85.3505 151.5,85.5C 151.238,84.0222 151.571,82.6888 152.5,81.5C 152.911,82.2624 153.077,83.2624 153,84.5C 154.258,82.2356 155.425,79.9023 156.5,77.5C 158.432,78.5202 160.432,78.6869 162.5,78C 161.552,77.5172 160.552,77.3505 159.5,77.5C 159.5,76.5 159.5,75.5 159.5,74.5C 162.558,74.3743 162.891,72.8743 160.5,70C 161.112,68.6967 161.446,67.5301 161.5,66.5C 162.5,66.8333 163.167,67.5 163.5,68.5C 161.913,70.4461 162.246,71.9461 164.5,73C 163.483,74.0495 163.316,75.2161 164,76.5C 164.739,74.7795 165.573,73.1128 166.5,71.5C 167.086,71.7093 167.586,72.0426 168,72.5C 170.6,69.6327 171.766,69.7993 171.5,73C 173.658,74.457 175.491,76.2903 177,78.5C 178.388,77.4464 179.888,77.2797 181.5,78C 179.408,80.1646 177.074,81.1646 174.5,81C 176.11,82.4947 177.776,82.6613 179.5,81.5C 179.669,82.3966 180.002,83.3966 180.5,84.5C 181.598,83.3845 182.765,83.3845 184,84.5C 185.811,83.5765 185.645,82.7431 183.5,82C 185.283,80.9335 185.783,79.4335 185,77.5C 184.585,79.2909 183.585,80.6243 182,81.5C 183.361,79.4403 183.861,77.107 183.5,74.5C 183.062,73.4937 182.396,73.4937 181.5,74.5C 179.497,72.8669 178.164,70.8669 177.5,68.5C 182.226,69.3481 186.892,70.5148 191.5,72C 194.635,72.8005 196.802,74.6338 198,77.5C 198.278,76.5842 198.778,75.9175 199.5,75.5 Z" data-index="20"></path></g>
<g><path style="opacity:1" fill="#4d7517" d="M 229.5,88.5 C 227.338,84.7099 225.005,84.7099 222.5,88.5C 222.851,86.1305 223.018,83.7972 223,81.5C 221.984,82.6341 221.317,82.3008 221,80.5C 219.691,82.8912 218.691,82.8912 218,80.5C 217.833,81 217.667,81.5 217.5,82C 218.34,83.1712 219.173,84.3379 220,85.5C 220.556,83.4049 221.056,83.2382 221.5,85C 221.046,87.0364 220.213,88.8697 219,90.5C 218.383,89.5509 218.549,88.7175 219.5,88C 218.24,86.887 217.073,86.7203 216,87.5C 216.402,85.1261 216.236,82.7928 215.5,80.5C 211.902,78.8642 209.402,79.8642 208,83.5C 207.51,82.2068 207.343,80.8734 207.5,79.5C 207.973,78.0937 208.973,77.427 210.5,77.5C 212.232,77.4563 214.065,77.4563 216,77.5C 216.677,75.311 217.844,74.9776 219.5,76.5C 220.807,75.1845 222.307,74.1845 224,73.5C 224.333,74.5 224.667,75.5 225,76.5C 225.667,75.1667 226.333,73.8333 227,72.5C 228.714,74.9693 229.547,77.4693 229.5,80C 228.551,80.6172 227.718,80.4506 227,79.5C 225.733,81.4236 225.733,83.0903 227,84.5C 227.333,83.5 227.667,82.5 228,81.5C 229.399,82.2266 230.899,82.7266 232.5,83C 229.965,83.9282 228.965,85.7615 229.5,88.5 Z" data-index="21"></path></g>
<g><path style="opacity:1" fill="#6b932c" d="M 207.5,79.5 C 207.343,80.8734 207.51,82.2068 208,83.5C 209.402,79.8642 211.902,78.8642 215.5,80.5C 216.236,82.7928 216.402,85.1261 216,87.5C 217.073,86.7203 218.24,86.887 219.5,88C 218.549,88.7175 218.383,89.5509 219,90.5C 220.213,88.8697 221.046,87.0364 221.5,85C 221.056,83.2382 220.556,83.4049 220,85.5C 219.173,84.3379 218.34,83.1712 217.5,82C 217.667,81.5 217.833,81 218,80.5C 218.691,82.8912 219.691,82.8912 221,80.5C 221.317,82.3008 221.984,82.6341 223,81.5C 223.018,83.7972 222.851,86.1305 222.5,88.5C 220.78,89.7507 220.447,91.2507 221.5,93C 219.865,93.5396 218.532,93.0396 217.5,91.5C 215.898,92.55 215.065,91.8833 215,89.5C 213.602,90.0509 212.268,90.3842 211,90.5C 208.993,87.788 209.826,86.288 213.5,86C 212.5,85.6667 211.5,85.3333 210.5,85C 211.696,84.3457 211.696,83.8457 210.5,83.5C 209.522,83.9767 208.689,84.6433 208,85.5C 206.984,84.3659 206.317,84.6992 206,86.5C 205.71,84.0796 205.21,81.7463 204.5,79.5C 205.5,78.1667 206.5,78.1667 207.5,79.5 Z" data-index="22"></path></g>
<g><path style="opacity: 1;" fill="#add75c" d="M 220.5,71.5 C 217.298,73.6827 213.964,75.6827 210.5,77.5C 208.973,77.427 207.973,78.0937 207.5,79.5C 206.5,78.1667 205.5,78.1667 204.5,79.5C 197.723,82.0545 191.057,84.8878 184.5,88C 182.68,88.9794 181.513,90.4794 181,92.5C 180.692,91.6919 180.192,91.0253 179.5,90.5C 173.396,93.5195 167.396,96.5195 161.5,99.5C 157.931,100.867 154.765,102.867 152,105.5C 151.586,105.043 151.086,104.709 150.5,104.5C 148.021,106.076 145.354,107.076 142.5,107.5C 148.361,104.812 154.028,101.645 159.5,98C 156.626,97.0575 153.96,95.8908 151.5,94.5C 155.762,95.7576 160.096,96.2576 164.5,96C 170.116,93.1329 175.783,90.4662 181.5,88C 180.04,87.1887 179.707,86.3554 180.5,85.5C 182.098,86.4847 183.765,86.6514 185.5,86C 190.833,83.3333 196.167,80.6667 201.5,78C 200.619,77.2917 199.953,76.4584 199.5,75.5C 202.445,76.4675 205.445,76.6342 208.5,76C 212.342,73.9983 216.342,72.4983 220.5,71.5 Z" data-index="23"></path></g>
<g><path style="opacity:1" fill="#eef9c9" d="M 254.5,73.5 C 254.833,73.5 255.167,73.5 255.5,73.5C 254.795,80.6538 253.295,87.6538 251,94.5C 250.329,95.2524 249.496,95.5858 248.5,95.5C 250.627,88.1942 252.627,80.8609 254.5,73.5 Z" data-index="24"></path></g>
<g><path style="opacity:1" fill="#548519" d="M 149.5,67.5 C 146.894,72.3681 147.727,72.7014 152,68.5C 152.216,70.3839 152.883,72.0506 154,73.5C 154.333,72.5 154.667,71.5 155,70.5C 155.346,72.8477 156.513,74.6811 158.5,76C 158,76.1667 157.5,76.3333 157,76.5C 150.643,73.5461 144.143,70.8795 137.5,68.5C 136.167,67.5 136.167,66.5 137.5,65.5C 138.696,65.8457 138.696,66.3457 137.5,67C 139.746,68.0395 141.913,69.2062 144,70.5C 145.255,69.7894 146.421,68.956 147.5,68C 146.809,66.9326 146.309,65.7659 146,64.5C 145.781,65.938 145.281,67.2713 144.5,68.5C 143.289,67.7261 143.289,66.8928 144.5,66C 143.833,65.6667 143.167,65.3333 142.5,65C 144.398,64.1004 146.064,62.9337 147.5,61.5C 146.5,61.5 145.5,61.5 144.5,61.5C 144.481,59.8945 144.647,58.2278 145,56.5C 143.853,57.4581 142.853,57.1247 142,55.5C 139.048,55.6143 136.048,55.6143 133,55.5C 131.72,55.6135 130.887,56.2801 130.5,57.5C 131.098,58.7946 131.598,60.1279 132,61.5C 136.573,62.1911 137.406,64.1911 134.5,67.5C 133.914,67.2907 133.414,66.9574 133,66.5C 129.924,67.2883 126.758,67.7883 123.5,68C 124,68.5 124.5,69 125,69.5C 127.908,68.9645 130.741,68.7978 133.5,69C 131.649,69.8372 129.816,70.6705 128,71.5C 126.167,71.3333 124.333,71.1667 122.5,71C 122.957,71.414 123.291,71.914 123.5,72.5C 122.833,72.8333 122.167,73.1667 121.5,73.5C 122.624,74.914 123.624,76.414 124.5,78C 124,78.5 123.5,79 123,79.5C 122.07,77.0639 120.903,74.7305 119.5,72.5C 120.609,70.7859 119.942,70.1192 117.5,70.5C 117.649,71.552 117.483,72.552 117,73.5C 116.3,71.968 115.134,70.968 113.5,70.5C 111.729,71.0354 111.396,71.8687 112.5,73C 109.917,74.4579 107.417,75.9579 105,77.5C 104.71,75.9559 104.044,74.6226 103,73.5C 102.632,74.91 101.799,75.91 100.5,76.5C 99.109,75.3554 97.7757,75.3554 96.5,76.5C 97.5498,77.4288 97.5498,78.0954 96.5,78.5C 95.8501,78.8039 95.1835,79.1373 94.5,79.5C 93.4096,78.273 92.0762,77.4396 90.5,77C 94.1986,75.7929 93.8653,74.9595 89.5,74.5C 85.5761,74.7015 85.5761,75.2015 89.5,76C 87.1667,76.3333 84.8333,76.6667 82.5,77C 83.6341,78.016 83.3008,78.6827 81.5,79C 83.3697,80.5644 85.3697,80.5644 87.5,79C 86.3044,78.3457 86.3044,77.8457 87.5,77.5C 88.9705,78.3805 89.8038,79.7139 90,81.5C 92.2057,77.4693 92.7057,77.6359 91.5,82C 92.3081,82.3076 92.9747,82.8076 93.5,83.5C 91.9974,84.0522 90.3307,84.0522 88.5,83.5C 88.5875,86.5983 88.0875,86.9316 87,84.5C 85.513,85.2529 85.3463,86.0862 86.5,87C 84.0566,88.9591 82.3899,88.2924 81.5,85C 79.6866,84.3856 79.3533,84.7189 80.5,86C 76.1779,87.1915 75.8446,88.5248 79.5,90C 78.2068,90.49 76.8734,90.6567 75.5,90.5C 75.2105,94.554 75.8771,95.054 77.5,92C 78.3317,91.3123 78.9984,91.479 79.5,92.5C 78.6744,93.451 78.5078,94.451 79,95.5C 79.9025,94.2986 81.0692,93.4652 82.5,93C 81.2888,92.1072 81.2888,91.2739 82.5,90.5C 83.782,92.1792 84.782,94.0126 85.5,96C 84.9747,96.6924 84.3081,97.1924 83.5,97.5C 83.0024,96.3966 82.6691,95.3966 82.5,94.5C 81.5713,95.6888 81.238,97.0222 81.5,98.5C 83.924,98.1924 86.2573,98.5258 88.5,99.5C 84.9734,99.0676 81.3067,99.5676 77.5,101C 80.5443,101.359 80.8776,102.026 78.5,103C 80.2022,104.583 81.5356,104.083 82.5,101.5C 83.6825,103.645 85.1825,103.645 87,101.5C 88.3333,102.167 89.6667,102.833 91,103.5C 91.6667,100.833 92.3333,100.833 93,103.5C 93.3333,102.833 93.6667,102.167 94,101.5C 95.4095,102.787 96.9095,103.954 98.5,105C 97.8333,105.333 97.1667,105.667 96.5,106C 98.4054,106.826 98.7388,107.993 97.5,109.5C 96.4593,107.009 95.6259,107.009 95,109.5C 94.3741,107.009 93.5407,107.009 92.5,109.5C 92.0024,108.397 91.6691,107.397 91.5,106.5C 90.2805,112.186 87.7805,112.852 84,108.5C 83.3828,109.449 83.5494,110.282 84.5,111C 83.2624,110.923 82.2624,111.089 81.5,111.5C 94.6102,112.184 107.61,113.351 120.5,115C 117.906,113.661 116.406,111.494 116,108.5C 115.444,110.595 114.944,110.762 114.5,109C 115.317,107.51 116.15,106.01 117,104.5C 117.333,105.167 117.667,105.833 118,106.5C 118.92,106.07 119.753,105.736 120.5,105.5C 119.975,104.808 119.308,104.308 118.5,104C 114.152,103.427 109.819,102.76 105.5,102C 113.181,101.643 120.515,102.81 127.5,105.5C 120.325,105.371 119.991,106.038 126.5,107.5C 126.219,109.963 125.219,112.13 123.5,114C 124.416,114.278 125.082,114.778 125.5,115.5C 124.602,116.158 123.602,116.824 122.5,117.5C 122.624,118.107 122.957,118.44 123.5,118.5C 121.768,122.18 119.935,125.847 118,129.5C 118.476,126.84 119.31,124.174 120.5,121.5C 118.054,120.017 118.388,118.851 121.5,118C 116.666,115.925 111.832,114.758 107,114.5C 106.5,114.833 106,115.167 105.5,115.5C 109.361,116.598 109.361,117.431 105.5,118C 107.424,118.179 109.091,118.346 110.5,118.5C 110.167,119.5 109.5,120.167 108.5,120.5C 107.28,119.289 106.113,119.289 105,120.5C 103.559,118.695 103.392,116.695 104.5,114.5C 99.7863,114.173 95.1196,114.507 90.5,115.5C 92.0474,115.207 93.7141,115.707 95.5,117C 94.1667,118.333 94.1667,119.667 95.5,121C 98.1013,121.92 100.768,122.587 103.5,123C 100.571,123.777 97.7372,123.61 95,122.5C 94.3333,126.5 93.6667,126.5 93,122.5C 92.6667,123.167 92.3333,123.833 92,124.5C 91.3109,123.643 90.4776,122.977 89.5,122.5C 88.2356,125.137 86.0689,125.137 83,122.5C 82.8333,122.833 82.6667,123.167 82.5,123.5C 87.3047,125.434 92.3047,126.934 97.5,128C 98.056,128.383 98.3893,128.883 98.5,129.5C 93.7313,127.573 88.898,126.906 84,127.5C 81.6628,126.246 79.4961,124.913 77.5,123.5C 78.7079,124.234 80.0413,124.567 81.5,124.5C 81.3379,122.473 81.5045,120.473 82,118.5C 82.2492,119.624 82.7492,120.624 83.5,121.5C 85.2656,119.551 84.599,118.051 81.5,117C 83.5,116.333 85.5,116.333 87.5,117C 87.3601,118.069 87.3601,119.236 87.5,120.5C 89.1222,118.561 90.9555,118.228 93,119.5C 93.1667,119.167 93.3333,118.833 93.5,118.5C 92.3112,117.571 90.9778,117.238 89.5,117.5C 89.5,116.5 89.5,115.5 89.5,114.5C 86.72,114.945 84.0534,114.945 81.5,114.5C 79.9798,115.85 79.3131,117.183 79.5,118.5C 72.8718,115.842 72.8718,114.675 79.5,115C 77.6079,114.027 75.6079,113.36 73.5,113C 76.1276,112.247 78.4609,111.747 80.5,111.5C 79.624,110.749 78.624,110.249 77.5,110C 78.6956,109.346 78.6956,108.846 77.5,108.5C 71.4284,109.274 70.4284,107.441 74.5,103C 70.6189,104.295 68.9522,102.795 69.5,98.5C 70.8734,98.6567 72.2068,98.49 73.5,98C 71.9391,97.6824 70.7724,96.8491 70,95.5C 69.6667,96.1667 69.3333,96.8333 69,97.5C 67.9887,96.6634 66.8221,96.33 65.5,96.5C 65.67,97.8221 65.3366,98.9887 64.5,100C 65.8333,100.333 67.1667,100.667 68.5,101C 66.203,102.16 66.5363,103.16 69.5,104C 67.5,105 65.5,106 63.5,107C 65.3774,107.576 67.2108,107.409 69,106.5C 70.7693,107.371 71.436,108.704 71,110.5C 68.1737,108.66 65.0071,107.994 61.5,108.5C 61.2155,110.877 61.2155,113.044 61.5,115C 58.8333,115.667 58.8333,116.333 61.5,117C 59.8978,118.935 58.7311,121.101 58,123.5C 55.175,121.994 53.3416,122.827 52.5,126C 53.5548,128.32 54.8881,130.487 56.5,132.5C 55.624,133.251 54.624,133.751 53.5,134C 57.8272,134.228 61.8272,135.394 65.5,137.5C 66.1924,136.975 66.6924,136.308 67,135.5C 68.073,136.28 69.2396,136.113 70.5,135C 67.5,134.667 64.5,134.333 61.5,134C 62.4158,133.722 63.0825,133.222 63.5,132.5C 66.4869,132.998 69.4869,133.498 72.5,134C 72.1667,134.333 71.8333,134.667 71.5,135C 72.6721,135.419 73.6721,136.085 74.5,137C 72.8876,137.72 71.3876,137.554 70,136.5C 67.5192,137.149 67.1859,138.149 69,139.5C 70.8402,138.167 71.3402,138.334 70.5,140C 71.3081,140.308 71.9747,140.808 72.5,141.5C 70.9203,141.079 69.4203,141.745 68,143.5C 66.2382,143.056 66.4049,142.556 68.5,142C 67.8742,141.25 67.3742,140.416 67,139.5C 65.2933,140.138 63.46,140.138 61.5,139.5C 61.5,138.5 61.5,137.5 61.5,136.5C 56.7152,135.912 52.0485,135.912 47.5,136.5C 46.6618,136.158 46.3284,135.492 46.5,134.5C 47.1667,134.5 47.5,134.167 47.5,133.5C 48.1312,131.552 49.1312,129.719 50.5,128C 50.3009,124.118 51.6343,120.618 54.5,117.5C 52.9604,116.468 52.4604,115.135 53,113.5C 54.9053,111.576 56.072,109.243 56.5,106.5C 57.9814,105.52 59.3147,104.353 60.5,103C 59.4829,101.951 59.3162,100.784 60,99.5C 61.9317,96.1156 64.4317,93.2823 67.5,91C 66.5494,90.2825 66.3828,89.4491 67,88.5C 70.7824,86.5524 73.2824,83.5524 74.5,79.5C 74.8333,79.5 75.1667,79.5 75.5,79.5C 77.2798,78.0101 77.9465,76.0101 77.5,73.5C 78.552,73.6495 79.552,73.4828 80.5,73C 84.1022,69.9282 87.4355,66.5949 90.5,63C 92.0249,61.9914 93.6916,61.4914 95.5,61.5C 94.6649,62.9432 93.3316,63.9432 91.5,64.5C 93.2664,67.6268 95.2664,67.9601 97.5,65.5C 98.5976,69.3605 99.4309,69.3605 100,65.5C 101.182,69.9525 102.682,70.2858 104.5,66.5C 100.639,65.4024 100.639,64.5691 104.5,64C 102.109,63.3086 102.109,62.3086 104.5,61C 102.205,60.0164 102.539,59.1831 105.5,58.5C 104.879,60.9983 105.545,63.3316 107.5,65.5C 107.749,64.4179 107.915,63.0846 108,61.5C 108.317,63.3008 108.984,63.6341 110,62.5C 112.418,63.6446 114.585,65.1446 116.5,67C 115.376,67.2492 114.376,67.7492 113.5,68.5C 116.446,69.6548 119.446,69.8214 122.5,69C 121.213,67.5905 120.046,66.0905 119,64.5C 118.508,65.549 118.674,66.549 119.5,67.5C 119.154,68.6956 118.654,68.6956 118,67.5C 116.066,65.5812 116.233,64.0812 118.5,63C 117.167,60.176 115.667,60.3426 114,63.5C 113.5,62 113,60.5 112.5,59C 113.424,57.1886 114.257,57.3553 115,59.5C 115.318,57.9391 116.151,56.7724 117.5,56C 116.167,55.6667 114.833,55.3333 113.5,55C 115.955,51.8751 117.622,52.3751 118.5,56.5C 122.351,55.9709 125.851,56.6375 129,58.5C 129.483,57.552 129.649,56.552 129.5,55.5C 126.351,55.7886 123.351,55.2886 120.5,54C 121.938,53.7811 123.271,53.2811 124.5,52.5C 121.972,51.1841 121.972,50.0174 124.5,49C 124.167,48.6667 123.833,48.3333 123.5,48C 125.163,47.7351 126.663,48.2351 128,49.5C 131.357,48.2577 131.19,47.4244 127.5,47C 127.833,46.6667 128.167,46.3333 128.5,46C 130.509,46.5936 132.509,46.4269 134.5,45.5C 134.833,45.6667 135.167,45.8333 135.5,46C 133.288,48.1744 133.788,50.0077 137,51.5C 137.333,50.8333 137.667,50.1667 138,49.5C 140.344,50.1975 142.511,49.5308 144.5,47.5C 144.307,48.6882 144.807,50.0215 146,51.5C 146.494,49.8659 146.66,48.1992 146.5,46.5C 144.146,46.162 141.813,45.662 139.5,45C 140.167,44.6667 140.833,44.3333 141.5,44C 139.355,43.2569 139.189,42.4235 141,41.5C 143.185,41.2574 145.352,41.7574 147.5,43C 143.02,43.2926 142.687,44.126 146.5,45.5C 147.314,47.7662 147.814,50.0995 148,52.5C 148.667,51.8333 149.333,51.1667 150,50.5C 151.41,51.7875 152.91,52.9542 154.5,54C 153.833,54.3333 153.167,54.6667 152.5,55C 153.471,56.2036 154.471,56.7036 155.5,56.5C 155,56.8333 154.5,57.1667 154,57.5C 150.546,56.878 147.713,55.2114 145.5,52.5C 145.167,52.8333 144.833,53.1667 144.5,53.5C 145.981,54.4803 147.315,55.647 148.5,57C 151.72,57.7163 154.72,58.883 157.5,60.5C 157.333,60.8333 157.167,61.1667 157,61.5C 152.014,58.6308 148.848,59.7974 147.5,65C 147.639,66.301 148.305,67.1344 149.5,67.5 Z" data-index="25"></path></g>
<g><path style="opacity: 1;" fill="#5f871e" d="M 249.5,62.5 C 249.611,63.1174 249.944,63.6174 250.5,64C 248.635,66.5882 247.802,69.4215 248,72.5C 248.333,71.8333 248.667,71.1667 249,70.5C 250.074,71.6184 251.24,72.6184 252.5,73.5C 251.494,74.3957 251.494,75.0623 252.5,75.5C 253.182,74.7573 253.849,74.0906 254.5,73.5C 252.627,80.8609 250.627,88.1942 248.5,95.5C 246.8,97.8996 245.467,100.566 244.5,103.5C 243.033,100.742 242.367,101.075 242.5,104.5C 241.5,104.5 240.5,104.5 239.5,104.5C 239.5,103.5 239.5,102.5 239.5,101.5C 237.833,101.5 236.167,101.5 234.5,101.5C 234.528,98.7486 235.528,96.4153 237.5,94.5C 236.998,93.479 236.332,93.3123 235.5,94C 234.083,96.9831 233.25,100.15 233,103.5C 231.383,104.851 230.216,106.518 229.5,108.5C 228.808,107.975 228.308,107.308 228,106.5C 227,107.833 226,109.167 225,110.5C 224.163,108.993 222.996,108.493 221.5,109C 222.833,110.333 224.167,111.667 225.5,113C 222.564,112.107 220.064,110.274 218,107.5C 217.938,103.852 218.105,100.185 218.5,96.5C 216.61,96.2965 215.11,96.9632 214,98.5C 213.333,97.8333 213.333,97.1667 214,96.5C 215.333,95.8333 216.333,94.8333 217,93.5C 217.317,95.3008 217.984,95.6341 219,94.5C 219.492,97.6392 220.825,100.306 223,102.5C 223.825,100.299 223.325,98.4659 221.5,97C 222.667,96.5 223.5,95.6667 224,94.5C 224.87,95.1079 225.37,95.9412 225.5,97C 223.965,101.077 224.799,101.577 228,98.5C 228.167,98.8333 228.333,99.1667 228.5,99.5C 227.167,100.62 226.667,101.953 227,103.5C 228.333,103.5 229.667,103.5 231,103.5C 231.658,101.892 231.158,100.725 229.5,100C 230.308,99.6924 230.975,99.1924 231.5,98.5C 229.851,97.8524 228.518,96.8524 227.5,95.5C 228.025,94.8076 228.692,94.3076 229.5,94C 226.734,92.629 224.401,90.7957 222.5,88.5C 225.005,84.7099 227.338,84.7099 229.5,88.5C 228.965,85.7615 229.965,83.9282 232.5,83C 230.899,82.7266 229.399,82.2266 228,81.5C 227.667,82.5 227.333,83.5 227,84.5C 225.733,83.0903 225.733,81.4236 227,79.5C 227.718,80.4506 228.551,80.6172 229.5,80C 229.547,77.4693 228.714,74.9693 227,72.5C 226.333,73.8333 225.667,75.1667 225,76.5C 224.667,75.5 224.333,74.5 224,73.5C 222.307,74.1845 220.807,75.1845 219.5,76.5C 217.844,74.9776 216.677,75.311 216,77.5C 214.065,77.4563 212.232,77.4563 210.5,77.5C 213.964,75.6827 217.298,73.6827 220.5,71.5C 222.807,71.0137 224.973,71.0137 227,71.5C 230.186,69.4293 233.352,67.4293 236.5,65.5C 238.857,65.6633 241.19,65.4966 243.5,65C 245.158,63.3375 247.158,62.5041 249.5,62.5 Z" data-index="26"></path></g>
<g><path style="opacity:1" fill="#456e0b" d="M 229.5,88.5 C 230.117,88.6107 230.617,88.944 231,89.5C 231.667,88.1667 232.667,87.1667 234,86.5C 234.333,85.1667 234.667,83.8333 235,82.5C 235.667,83.8333 236.333,83.8333 237,82.5C 237.667,79.8333 238.333,77.1667 239,74.5C 240.667,73.5 242.333,72.5 244,71.5C 244.5,72 245,72.5 245.5,73C 241.887,75.1276 239.554,78.2943 238.5,82.5C 239.025,83.1924 239.692,83.6924 240.5,84C 239.24,85.8138 239.24,87.6471 240.5,89.5C 241.799,88.91 242.632,87.91 243,86.5C 243.333,87.1667 243.667,87.8333 244,88.5C 244.923,87.2412 245.757,85.9079 246.5,84.5C 246.833,84.6667 247.167,84.8333 247.5,85C 247.038,86.7216 246.872,88.555 247,90.5C 246.026,88.1224 245.359,88.4557 245,91.5C 243.983,88.972 242.816,88.972 241.5,91.5C 240.205,90.9017 238.872,90.4017 237.5,90C 237.43,88.3764 236.93,86.5431 236,84.5C 235.51,85.7932 235.343,87.1266 235.5,88.5C 234.325,88.281 233.325,88.6143 232.5,89.5C 233.167,89.8333 233.833,90.1667 234.5,90.5C 233.846,92.1151 233.346,93.7818 233,95.5C 230.175,94.4158 230.008,93.2492 232.5,92C 231.351,90.2559 230.017,90.0892 228.5,91.5C 226.998,90.9169 225.665,90.0836 224.5,89C 226.32,89.4759 227.987,89.3093 229.5,88.5 Z" data-index="27"></path></g>
<g><path style="opacity:1" fill="#598d1d" d="M 140.5,107.5 C 140.158,108.338 139.492,108.672 138.5,108.5C 134.554,108.118 130.888,107.118 127.5,105.5C 128.978,105.762 130.311,105.429 131.5,104.5C 131.291,103.914 130.957,103.414 130.5,103C 131.624,102.751 132.624,102.251 133.5,101.5C 133.062,100.494 132.396,100.494 131.5,101.5C 130.117,98.9244 129.283,99.2577 129,102.5C 128.275,100.842 127.108,100.342 125.5,101C 127.271,101.535 127.604,102.369 126.5,103.5C 124.787,103.121 123.787,102.121 123.5,100.5C 126.423,100.187 127.423,98.854 126.5,96.5C 127.736,95.6433 129.069,94.9766 130.5,94.5C 130.833,95.1667 131.167,95.8333 131.5,96.5C 134.308,94.9528 136.641,95.4528 138.5,98C 138.355,98.772 138.022,99.4387 137.5,100C 139.167,101.667 140.833,103.333 142.5,105C 141.551,105.617 140.718,105.451 140,104.5C 139.667,105.167 139.333,105.833 139,106.5C 136.936,105.409 134.769,105.242 132.5,106C 135.168,106.567 137.834,107.067 140.5,107.5 Z" data-index="28"></path></g>
<g><path style="opacity:1" fill="#447610" d="M 151.5,94.5 C 153.96,95.8908 156.626,97.0575 159.5,98C 154.028,101.645 148.361,104.812 142.5,107.5C 141.833,107.5 141.167,107.5 140.5,107.5C 137.834,107.067 135.168,106.567 132.5,106C 134.769,105.242 136.936,105.409 139,106.5C 139.333,105.833 139.667,105.167 140,104.5C 140.718,105.451 141.551,105.617 142.5,105C 140.833,103.333 139.167,101.667 137.5,100C 138.022,99.4387 138.355,98.772 138.5,98C 136.641,95.4528 134.308,94.9528 131.5,96.5C 131.167,95.8333 130.833,95.1667 130.5,94.5C 129.069,94.9766 127.736,95.6433 126.5,96.5C 127.423,98.854 126.423,100.187 123.5,100.5C 123.721,99.2652 124.388,98.2652 125.5,97.5C 124.672,96.5853 123.672,95.9186 122.5,95.5C 121.38,96.8334 120.047,97.3334 118.5,97C 120.396,95.1917 120.896,93.025 120,90.5C 119.526,95.627 118.526,95.627 117,90.5C 116.667,92.8333 116.333,95.1667 116,97.5C 115.503,94.854 115.336,92.1873 115.5,89.5C 121.392,89.2994 126.892,89.966 132,91.5C 132.167,91.1667 132.333,90.8333 132.5,90.5C 128.351,89.6419 124.351,88.4752 120.5,87C 121.803,86.7902 123.136,86.9569 124.5,87.5C 126.029,87.4712 127.196,86.8045 128,85.5C 127.667,83.8333 127.333,82.1667 127,80.5C 129,83.1667 131,85.8333 133,88.5C 133.684,87.2161 133.517,86.0495 132.5,85C 133.777,84.8726 134.943,85.3726 136,86.5C 137.582,85.7052 137.749,84.5385 136.5,83C 136.944,81.2382 137.444,81.4049 138,83.5C 138.684,82.2161 138.517,81.0495 137.5,80C 138,79.5 138.5,79 139,78.5C 140,81.5 141,84.5 142,87.5C 142.29,85.9559 142.956,84.6226 144,83.5C 145.135,83.727 146.302,84.0604 147.5,84.5C 146.41,86.003 145.243,86.3363 144,85.5C 143.03,88.8265 144.197,90.9932 147.5,92C 143.132,91.6615 138.799,90.8282 134.5,89.5C 133.417,90.365 133.251,91.365 134,92.5C 134.893,91.9186 135.893,91.5852 137,91.5C 141.748,92.9495 146.581,93.9495 151.5,94.5 Z" data-index="29"></path></g>
<g><path style="opacity:1" fill="#41720c" d="M 96.5,78.5 C 96.6107,79.1174 96.944,79.6174 97.5,80C 96.4258,80.7387 95.7591,81.7387 95.5,83C 96.5733,84.4162 96.5733,85.7496 95.5,87C 97.5,87.3333 99.5,87.6667 101.5,88C 98.8323,88.567 96.1656,89.067 93.5,89.5C 93.6567,90.8734 93.49,92.2068 93,93.5C 90.9088,90.4651 88.4088,89.9651 85.5,92C 86.4061,93.6995 86.7394,95.5328 86.5,97.5C 89.0792,97.9167 91.2458,97.25 93,95.5C 93.5,97.3333 94.6667,98.5 96.5,99C 95.1667,99.3333 93.8333,99.6667 92.5,100C 94.556,100.311 96.556,100.811 98.5,101.5C 100.833,110.66 101.5,110.66 100.5,101.5C 101.873,101.657 103.207,101.49 104.5,101C 102.729,100.465 102.396,99.6313 103.5,98.5C 105.382,99.0933 107.215,99.7599 109,100.5C 109.691,98.1088 110.691,98.1088 112,100.5C 112.967,99.3224 113.467,97.989 113.5,96.5C 115.168,99.5032 117.668,101.503 121,102.5C 121.417,101.244 122.25,100.577 123.5,100.5C 123.787,102.121 124.787,103.121 126.5,103.5C 127.604,102.369 127.271,101.535 125.5,101C 127.108,100.342 128.275,100.842 129,102.5C 129.283,99.2577 130.117,98.9244 131.5,101.5C 132.396,100.494 133.062,100.494 133.5,101.5C 132.624,102.251 131.624,102.751 130.5,103C 130.957,103.414 131.291,103.914 131.5,104.5C 130.311,105.429 128.978,105.762 127.5,105.5C 120.515,102.81 113.181,101.643 105.5,102C 109.819,102.76 114.152,103.427 118.5,104C 119.308,104.308 119.975,104.808 120.5,105.5C 119.753,105.736 118.92,106.07 118,106.5C 117.667,105.833 117.333,105.167 117,104.5C 116.15,106.01 115.317,107.51 114.5,109C 114.944,110.762 115.444,110.595 116,108.5C 116.406,111.494 117.906,113.661 120.5,115C 107.61,113.351 94.6102,112.184 81.5,111.5C 82.2624,111.089 83.2624,110.923 84.5,111C 83.5494,110.282 83.3828,109.449 84,108.5C 87.7805,112.852 90.2805,112.186 91.5,106.5C 91.6691,107.397 92.0024,108.397 92.5,109.5C 93.5407,107.009 94.3741,107.009 95,109.5C 95.6259,107.009 96.4593,107.009 97.5,109.5C 98.7388,107.993 98.4054,106.826 96.5,106C 97.1667,105.667 97.8333,105.333 98.5,105C 96.9095,103.954 95.4095,102.787 94,101.5C 93.6667,102.167 93.3333,102.833 93,103.5C 92.3333,100.833 91.6667,100.833 91,103.5C 89.6667,102.833 88.3333,102.167 87,101.5C 85.1825,103.645 83.6825,103.645 82.5,101.5C 81.5356,104.083 80.2022,104.583 78.5,103C 80.8776,102.026 80.5443,101.359 77.5,101C 81.3067,99.5676 84.9734,99.0676 88.5,99.5C 86.2573,98.5258 83.924,98.1924 81.5,98.5C 81.238,97.0222 81.5713,95.6888 82.5,94.5C 82.6691,95.3966 83.0024,96.3966 83.5,97.5C 84.3081,97.1924 84.9747,96.6924 85.5,96C 84.782,94.0126 83.782,92.1792 82.5,90.5C 81.2888,91.2739 81.2888,92.1072 82.5,93C 81.0692,93.4652 79.9025,94.2986 79,95.5C 78.5078,94.451 78.6744,93.451 79.5,92.5C 78.9984,91.479 78.3317,91.3123 77.5,92C 75.8771,95.054 75.2105,94.554 75.5,90.5C 76.8734,90.6567 78.2068,90.49 79.5,90C 75.8446,88.5248 76.1779,87.1915 80.5,86C 79.3533,84.7189 79.6866,84.3856 81.5,85C 82.3899,88.2924 84.0566,88.9591 86.5,87C 85.3463,86.0862 85.513,85.2529 87,84.5C 88.0875,86.9316 88.5875,86.5983 88.5,83.5C 90.3307,84.0522 91.9974,84.0522 93.5,83.5C 92.9747,82.8076 92.3081,82.3076 91.5,82C 92.7057,77.6359 92.2057,77.4693 90,81.5C 89.8038,79.7139 88.9705,78.3805 87.5,77.5C 86.3044,77.8457 86.3044,78.3457 87.5,79C 85.3697,80.5644 83.3697,80.5644 81.5,79C 83.3008,78.6827 83.6341,78.016 82.5,77C 84.8333,76.6667 87.1667,76.3333 89.5,76C 85.5761,75.2015 85.5761,74.7015 89.5,74.5C 93.8653,74.9595 94.1986,75.7929 90.5,77C 92.0762,77.4396 93.4096,78.273 94.5,79.5C 95.1835,79.1373 95.8501,78.8039 96.5,78.5 Z" data-index="30"></path></g>
<g><path style="opacity: 1;" fill="#5f8c22" d="M 199.5,97.5 C 199.489,99.0174 198.823,100.184 197.5,101C 197.833,101.333 198.167,101.667 198.5,102C 193.459,103.008 193.792,103.508 199.5,103.5C 198.232,108.97 196.565,114.304 194.5,119.5C 193.957,119.44 193.624,119.107 193.5,118.5C 196.809,111.738 194.809,109.904 187.5,113C 189.379,113.96 191.379,114.46 193.5,114.5C 191.515,114.604 190.015,115.937 189,118.5C 187.757,117.664 186.59,117.997 185.5,119.5C 186.718,119.109 187.552,119.776 188,121.5C 188.669,118.972 189.502,118.972 190.5,121.5C 189.624,122.251 188.624,122.751 187.5,123C 188.167,123.333 188.833,123.667 189.5,124C 187.999,125.252 186.332,126.252 184.5,127C 186.929,127.451 187.096,128.285 185,129.5C 184,128.5 183,127.5 182,126.5C 181.598,127.872 181.098,129.205 180.5,130.5C 181.167,130.833 181.833,131.167 182.5,131.5C 180.955,132.452 179.288,132.785 177.5,132.5C 177.481,130.94 177.148,129.44 176.5,128C 176.905,127.055 177.572,126.388 178.5,126C 177.346,125.086 177.513,124.253 179,123.5C 179.763,126.063 180.263,126.063 180.5,123.5C 180.24,121.813 179.573,120.313 178.5,119C 180.017,117.221 180.851,117.721 181,120.5C 181.5,120 182,119.5 182.5,119C 181.167,118 181.167,117 182.5,116C 181.5,115.667 180.5,115.333 179.5,115C 182.003,113.451 182.003,111.784 179.5,110C 180.252,109.329 180.586,108.496 180.5,107.5C 182.1,108.252 183.6,109.252 185,110.5C 184.553,107.15 182.72,104.65 179.5,103C 180.449,102.383 181.282,102.549 182,103.5C 183.675,101.409 184.175,99.2421 183.5,97C 184.76,95.887 185.927,95.7203 187,96.5C 187.167,96.1667 187.333,95.8333 187.5,95.5C 186.624,94.7492 185.624,94.2492 184.5,94C 187.406,92.6815 190.406,92.3482 193.5,93C 193.167,93.3333 192.833,93.6667 192.5,94C 195.491,97.4412 194.491,100.275 189.5,102.5C 189.667,102.833 189.833,103.167 190,103.5C 190.741,102.359 191.575,102.359 192.5,103.5C 193.617,100.047 195.951,98.0474 199.5,97.5 Z" data-index="31"></path></g>
<g><path style="opacity:1" fill="#416f09" d="M 127.5,105.5 C 130.888,107.118 134.554,108.118 138.5,108.5C 134.653,111.593 130.32,113.926 125.5,115.5C 125.082,114.778 124.416,114.278 123.5,114C 125.219,112.13 126.219,109.963 126.5,107.5C 119.991,106.038 120.325,105.371 127.5,105.5 Z" data-index="32"></path></g>
<g><path style="opacity: 1;" fill="#527c1a" d="M 204.5,79.5 C 205.21,81.7463 205.71,84.0796 206,86.5C 206.317,84.6992 206.984,84.3659 208,85.5C 208.689,84.6433 209.522,83.9767 210.5,83.5C 211.696,83.8457 211.696,84.3457 210.5,85C 211.5,85.3333 212.5,85.6667 213.5,86C 209.826,86.288 208.993,87.788 211,90.5C 212.268,90.3842 213.602,90.0509 215,89.5C 215.065,91.8833 215.898,92.55 217.5,91.5C 218.532,93.0396 219.865,93.5396 221.5,93C 220.447,91.2507 220.78,89.7507 222.5,88.5C 224.401,90.7957 226.734,92.629 229.5,94C 228.692,94.3076 228.025,94.8076 227.5,95.5C 228.518,96.8524 229.851,97.8524 231.5,98.5C 230.975,99.1924 230.308,99.6924 229.5,100C 231.158,100.725 231.658,101.892 231,103.5C 229.667,103.5 228.333,103.5 227,103.5C 226.667,101.953 227.167,100.62 228.5,99.5C 228.333,99.1667 228.167,98.8333 228,98.5C 224.799,101.577 223.965,101.077 225.5,97C 225.37,95.9412 224.87,95.1079 224,94.5C 223.5,95.6667 222.667,96.5 221.5,97C 223.325,98.4659 223.825,100.299 223,102.5C 220.825,100.306 219.492,97.6392 219,94.5C 217.984,95.6341 217.317,95.3008 217,93.5C 216.333,94.8333 215.333,95.8333 214,96.5C 213.333,97.1667 213.333,97.8333 214,98.5C 215.11,96.9632 216.61,96.2965 218.5,96.5C 218.105,100.185 217.938,103.852 218,107.5C 220.064,110.274 222.564,112.107 225.5,113C 224.167,111.667 222.833,110.333 221.5,109C 222.996,108.493 224.163,108.993 225,110.5C 226,109.167 227,107.833 228,106.5C 228.308,107.308 228.808,107.975 229.5,108.5C 230.216,106.518 231.383,104.851 233,103.5C 233.25,100.15 234.083,96.9831 235.5,94C 236.332,93.3123 236.998,93.479 237.5,94.5C 235.528,96.4153 234.528,98.7486 234.5,101.5C 236.167,101.5 237.833,101.5 239.5,101.5C 239.5,102.5 239.5,103.5 239.5,104.5C 240.5,104.5 241.5,104.5 242.5,104.5C 242.367,101.075 243.033,100.742 244.5,103.5C 236.546,118.775 226.212,132.108 213.5,143.5C 211.5,145.167 209.5,146.833 207.5,148.5C 205.362,148.297 203.695,147.297 202.5,145.5C 201.209,142.19 201.709,141.856 204,144.5C 204.346,142.782 204.846,141.115 205.5,139.5C 208.129,137.95 209.963,138.616 211,141.5C 212.756,139.726 212.756,138.059 211,136.5C 209.186,137.76 207.353,137.76 205.5,136.5C 206.826,136.795 208.159,136.295 209.5,135C 209.018,133.992 208.852,132.825 209,131.5C 208.25,132.126 207.416,132.626 206.5,133C 206.833,133.333 207.167,133.667 207.5,134C 206.216,134.684 205.049,134.517 204,133.5C 203.383,134.449 203.549,135.282 204.5,136C 202.009,136.626 202.009,137.459 204.5,138.5C 203.975,139.192 203.308,139.692 202.5,140C 202.833,140.333 203.167,140.667 203.5,141C 202.365,141.749 201.365,141.583 200.5,140.5C 200.081,139.328 199.415,138.328 198.5,137.5C 197.391,138.59 196.391,138.59 195.5,137.5C 197.727,135.393 199.727,133.06 201.5,130.5C 201.333,130.167 201.167,129.833 201,129.5C 200.311,130.357 199.478,131.023 198.5,131.5C 197.5,129.833 196.167,128.5 194.5,127.5C 195.313,126.186 196.313,125.019 197.5,124C 195.859,122.871 194.859,121.371 194.5,119.5C 198.548,123.069 201.715,127.402 204,132.5C 204.536,130.131 205.703,128.131 207.5,126.5C 206.528,124.364 204.861,123.197 202.5,123C 203.938,122.781 205.271,122.281 206.5,121.5C 205.467,120.548 204.3,120.548 203,121.5C 200.991,120.518 200.491,119.185 201.5,117.5C 200.833,116.5 200.167,115.5 199.5,114.5C 200.167,114.167 200.833,113.833 201.5,113.5C 200.689,112.784 200.022,111.95 199.5,111C 200.604,109.18 202.104,107.68 204,106.5C 204.617,107.449 204.451,108.282 203.5,109C 204.667,109.5 205.5,110.333 206,111.5C 207.352,109.568 209.185,108.234 211.5,107.5C 210.229,107.874 209.062,107.208 208,105.5C 206.816,107.654 205.65,107.32 204.5,104.5C 205.767,102.629 205.767,100.796 204.5,99C 205.744,98.5439 206.577,99.0439 207,100.5C 207.5,99.3333 208.333,98.5 209.5,98C 208.5,97 207.5,96 206.5,95C 207.428,94.6121 208.095,93.9454 208.5,93C 207.683,91.51 206.85,90.01 206,88.5C 204.81,91.3458 203.643,94.1792 202.5,97C 202.87,98.8958 203.037,100.729 203,102.5C 201.697,101.888 200.53,101.554 199.5,101.5C 201.117,99.3684 201.617,97.0351 201,94.5C 200.768,95.7375 200.268,96.7375 199.5,97.5C 195.951,98.0474 193.617,100.047 192.5,103.5C 191.575,102.359 190.741,102.359 190,103.5C 189.833,103.167 189.667,102.833 189.5,102.5C 194.491,100.275 195.491,97.4412 192.5,94C 192.833,93.6667 193.167,93.3333 193.5,93C 190.406,92.3482 187.406,92.6815 184.5,94C 185.624,94.2492 186.624,94.7492 187.5,95.5C 187.333,95.8333 187.167,96.1667 187,96.5C 185.927,95.7203 184.76,95.887 183.5,97C 184.175,99.2421 183.675,101.409 182,103.5C 181.282,102.549 180.449,102.383 179.5,103C 182.72,104.65 184.553,107.15 185,110.5C 183.6,109.252 182.1,108.252 180.5,107.5C 180.279,104.903 179.779,104.903 179,107.5C 178.667,106.5 178.333,105.5 178,104.5C 175.723,109.387 173.723,114.387 172,119.5C 169.595,120.274 167.095,120.774 164.5,121C 166.402,121.199 167.902,122.033 169,123.5C 169.333,122.833 169.667,122.167 170,121.5C 170.595,122.899 170.428,124.232 169.5,125.5C 171.139,126.916 171.973,128.583 172,130.5C 171.311,129.643 170.478,128.977 169.5,128.5C 169.331,129.397 168.998,130.397 168.5,131.5C 167.575,130.359 166.741,130.359 166,131.5C 166,130.167 166,128.833 166,127.5C 165.667,127.833 165.333,128.167 165,128.5C 163.266,127.751 161.433,127.251 159.5,127C 159.727,125.865 160.06,124.698 160.5,123.5C 161.251,124.376 161.751,125.376 162,126.5C 162.465,125.069 163.299,123.903 164.5,123C 161.156,122.43 160.823,121.264 163.5,119.5C 163.023,118.522 162.357,117.689 161.5,117C 162.449,116.383 163.282,116.549 164,117.5C 164.167,117 164.333,116.5 164.5,116C 162.543,113.499 161.877,110.833 162.5,108C 163.833,107.667 165.167,107.333 166.5,107C 165.283,105.352 164.45,103.519 164,101.5C 163.275,103.949 162.275,106.283 161,108.5C 160.846,105.768 161.346,103.102 162.5,100.5C 162.376,99.8933 162.043,99.56 161.5,99.5C 167.396,96.5195 173.396,93.5195 179.5,90.5C 180.192,91.0253 180.692,91.6919 181,92.5C 181.513,90.4794 182.68,88.9794 184.5,88C 191.057,84.8878 197.723,82.0545 204.5,79.5 Z" data-index="33"></path></g>
<g><path style="opacity: 1;" fill="#436c0f" d="M 194.5,119.5 C 196.565,114.304 198.232,108.97 199.5,103.5C 193.792,103.508 193.459,103.008 198.5,102C 198.167,101.667 197.833,101.333 197.5,101C 198.823,100.184 199.489,99.0174 199.5,97.5C 200.268,96.7375 200.768,95.7375 201,94.5C 201.617,97.0351 201.117,99.3684 199.5,101.5C 200.53,101.554 201.697,101.888 203,102.5C 203.037,100.729 202.87,98.8958 202.5,97C 203.643,94.1792 204.81,91.3458 206,88.5C 206.85,90.01 207.683,91.51 208.5,93C 208.095,93.9454 207.428,94.6121 206.5,95C 207.5,96 208.5,97 209.5,98C 208.333,98.5 207.5,99.3333 207,100.5C 206.577,99.0439 205.744,98.5439 204.5,99C 205.767,100.796 205.767,102.629 204.5,104.5C 205.65,107.32 206.816,107.654 208,105.5C 209.062,107.208 210.229,107.874 211.5,107.5C 209.185,108.234 207.352,109.568 206,111.5C 205.5,110.333 204.667,109.5 203.5,109C 204.451,108.282 204.617,107.449 204,106.5C 202.104,107.68 200.604,109.18 199.5,111C 200.022,111.95 200.689,112.784 201.5,113.5C 200.833,113.833 200.167,114.167 199.5,114.5C 200.167,115.5 200.833,116.5 201.5,117.5C 200.491,119.185 200.991,120.518 203,121.5C 204.3,120.548 205.467,120.548 206.5,121.5C 205.271,122.281 203.938,122.781 202.5,123C 204.861,123.197 206.528,124.364 207.5,126.5C 205.703,128.131 204.536,130.131 204,132.5C 201.715,127.402 198.548,123.069 194.5,119.5 Z" data-index="34"></path></g>
<g><path style="opacity:1" fill="#9cc965" d="M 140.5,107.5 C 141.167,107.5 141.833,107.5 142.5,107.5C 136.725,111.895 130.392,115.562 123.5,118.5C 122.957,118.44 122.624,118.107 122.5,117.5C 123.602,116.824 124.602,116.158 125.5,115.5C 130.32,113.926 134.653,111.593 138.5,108.5C 139.492,108.672 140.158,108.338 140.5,107.5 Z" data-index="35"></path></g>
<g><path style="opacity:1" fill="#f2f8de" d="M 74.5,79.5 C 73.2824,83.5524 70.7824,86.5524 67,88.5C 66.3828,89.4491 66.5494,90.2825 67.5,91C 64.4317,93.2823 61.9317,96.1156 60,99.5C 59.3162,100.784 59.4829,101.951 60.5,103C 59.3147,104.353 57.9814,105.52 56.5,106.5C 56.072,109.243 54.9053,111.576 53,113.5C 52.4604,115.135 52.9604,116.468 54.5,117.5C 51.6343,120.618 50.3009,124.118 50.5,128C 49.1312,129.719 48.1312,131.552 47.5,133.5C 47.0918,127.049 48.0918,120.882 50.5,115C 47.4571,112.054 48.1238,110.888 52.5,111.5C 54.7535,106.941 56.7535,102.108 58.5,97C 58.3552,96.228 58.0219,95.5613 57.5,95C 59,92.8333 60.8333,91 63,89.5C 63.414,89.9574 63.914,90.2907 64.5,90.5C 65.2766,88.2188 66.2766,86.0521 67.5,84C 69.7613,82.1871 72.0947,80.6871 74.5,79.5 Z" data-index="36"></path></g>
<g><path style="opacity:1" fill="#447612" d="M 77.5,123.5 C 74.91,124.128 72.5766,125.295 70.5,127C 71.8333,127 73.1667,127 74.5,127C 74.1667,127.333 73.8333,127.667 73.5,128C 74.8333,129 76.1667,130 77.5,131C 75.5104,130.862 73.5104,130.362 71.5,129.5C 68.4952,129.905 65.8285,130.905 63.5,132.5C 63.0825,133.222 62.4158,133.722 61.5,134C 64.5,134.333 67.5,134.667 70.5,135C 69.2396,136.113 68.073,136.28 67,135.5C 66.6924,136.308 66.1924,136.975 65.5,137.5C 61.8272,135.394 57.8272,134.228 53.5,134C 54.624,133.751 55.624,133.251 56.5,132.5C 54.8881,130.487 53.5548,128.32 52.5,126C 53.3416,122.827 55.175,121.994 58,123.5C 58.7311,121.101 59.8978,118.935 61.5,117C 58.8333,116.333 58.8333,115.667 61.5,115C 61.2155,113.044 61.2155,110.877 61.5,108.5C 65.0071,107.994 68.1737,108.66 71,110.5C 71.436,108.704 70.7693,107.371 69,106.5C 67.2108,107.409 65.3774,107.576 63.5,107C 65.5,106 67.5,105 69.5,104C 66.5363,103.16 66.203,102.16 68.5,101C 67.1667,100.667 65.8333,100.333 64.5,100C 65.3366,98.9887 65.67,97.8221 65.5,96.5C 66.8221,96.33 67.9887,96.6634 69,97.5C 69.3333,96.8333 69.6667,96.1667 70,95.5C 70.7724,96.8491 71.9391,97.6824 73.5,98C 72.2068,98.49 70.8734,98.6567 69.5,98.5C 68.9522,102.795 70.6189,104.295 74.5,103C 70.4284,107.441 71.4284,109.274 77.5,108.5C 78.6956,108.846 78.6956,109.346 77.5,110C 78.624,110.249 79.624,110.749 80.5,111.5C 78.4609,111.747 76.1276,112.247 73.5,113C 75.6079,113.36 77.6079,114.027 79.5,115C 72.8718,114.675 72.8718,115.842 79.5,118.5C 79.3131,117.183 79.9798,115.85 81.5,114.5C 84.0534,114.945 86.72,114.945 89.5,114.5C 89.5,115.5 89.5,116.5 89.5,117.5C 90.9778,117.238 92.3112,117.571 93.5,118.5C 93.3333,118.833 93.1667,119.167 93,119.5C 90.9555,118.228 89.1222,118.561 87.5,120.5C 87.3601,119.236 87.3601,118.069 87.5,117C 85.5,116.333 83.5,116.333 81.5,117C 84.599,118.051 85.2656,119.551 83.5,121.5C 82.7492,120.624 82.2492,119.624 82,118.5C 81.5045,120.473 81.3379,122.473 81.5,124.5C 80.0413,124.567 78.7079,124.234 77.5,123.5 Z" data-index="37"></path></g>
<g><path style="opacity:1" fill="#457114" d="M 161.5,99.5 C 162.043,99.56 162.376,99.8933 162.5,100.5C 161.346,103.102 160.846,105.768 161,108.5C 162.275,106.283 163.275,103.949 164,101.5C 164.45,103.519 165.283,105.352 166.5,107C 165.167,107.333 163.833,107.667 162.5,108C 161.877,110.833 162.543,113.499 164.5,116C 164.333,116.5 164.167,117 164,117.5C 163.282,116.549 162.449,116.383 161.5,117C 162.357,117.689 163.023,118.522 163.5,119.5C 160.823,121.264 161.156,122.43 164.5,123C 163.299,123.903 162.465,125.069 162,126.5C 161.751,125.376 161.251,124.376 160.5,123.5C 160.06,124.698 159.727,125.865 159.5,127C 161.433,127.251 163.266,127.751 165,128.5C 165.333,128.167 165.667,127.833 166,127.5C 166,128.833 166,130.167 166,131.5C 166.741,130.359 167.575,130.359 168.5,131.5C 168.998,130.397 169.331,129.397 169.5,128.5C 170.478,128.977 171.311,129.643 172,130.5C 171.973,128.583 171.139,126.916 169.5,125.5C 170.428,124.232 170.595,122.899 170,121.5C 169.667,122.167 169.333,122.833 169,123.5C 167.902,122.033 166.402,121.199 164.5,121C 167.095,120.774 169.595,120.274 172,119.5C 173.723,114.387 175.723,109.387 178,104.5C 178.333,105.5 178.667,106.5 179,107.5C 179.779,104.903 180.279,104.903 180.5,107.5C 180.586,108.496 180.252,109.329 179.5,110C 182.003,111.784 182.003,113.451 179.5,115C 180.5,115.333 181.5,115.667 182.5,116C 181.167,117 181.167,118 182.5,119C 182,119.5 181.5,120 181,120.5C 180.851,117.721 180.017,117.221 178.5,119C 179.573,120.313 180.24,121.813 180.5,123.5C 180.263,126.063 179.763,126.063 179,123.5C 177.513,124.253 177.346,125.086 178.5,126C 177.572,126.388 176.905,127.055 176.5,128C 177.148,129.44 177.481,130.94 177.5,132.5C 179.288,132.785 180.955,132.452 182.5,131.5C 181.833,131.167 181.167,130.833 180.5,130.5C 181.098,129.205 181.598,127.872 182,126.5C 183,127.5 184,128.5 185,129.5C 187.096,128.285 186.929,127.451 184.5,127C 186.332,126.252 187.999,125.252 189.5,124C 188.833,123.667 188.167,123.333 187.5,123C 188.624,122.751 189.624,122.251 190.5,121.5C 189.502,118.972 188.669,118.972 188,121.5C 187.552,119.776 186.718,119.109 185.5,119.5C 186.59,117.997 187.757,117.664 189,118.5C 190.015,115.937 191.515,114.604 193.5,114.5C 191.379,114.46 189.379,113.96 187.5,113C 194.809,109.904 196.809,111.738 193.5,118.5C 193.624,119.107 193.957,119.44 194.5,119.5C 194.859,121.371 195.859,122.871 197.5,124C 196.313,125.019 195.313,126.186 194.5,127.5C 196.167,128.5 197.5,129.833 198.5,131.5C 199.478,131.023 200.311,130.357 201,129.5C 201.167,129.833 201.333,130.167 201.5,130.5C 199.727,133.06 197.727,135.393 195.5,137.5C 196.391,138.59 197.391,138.59 198.5,137.5C 199.415,138.328 200.081,139.328 200.5,140.5C 201.365,141.583 202.365,141.749 203.5,141C 203.167,140.667 202.833,140.333 202.5,140C 203.308,139.692 203.975,139.192 204.5,138.5C 202.009,137.459 202.009,136.626 204.5,136C 203.549,135.282 203.383,134.449 204,133.5C 205.049,134.517 206.216,134.684 207.5,134C 207.167,133.667 206.833,133.333 206.5,133C 207.416,132.626 208.25,132.126 209,131.5C 208.852,132.825 209.018,133.992 209.5,135C 208.159,136.295 206.826,136.795 205.5,136.5C 207.353,137.76 209.186,137.76 211,136.5C 212.756,138.059 212.756,139.726 211,141.5C 209.963,138.616 208.129,137.95 205.5,139.5C 204.846,141.115 204.346,142.782 204,144.5C 201.709,141.856 201.209,142.19 202.5,145.5C 203.695,147.297 205.362,148.297 207.5,148.5C 206.713,150.104 205.38,150.771 203.5,150.5C 201.573,153.767 199.239,156.767 196.5,159.5C 196.167,159.5 195.833,159.5 195.5,159.5C 195.103,158.475 194.437,158.308 193.5,159C 189.909,162.799 185.909,166.133 181.5,169C 180.423,169.47 179.423,169.303 178.5,168.5C 178.326,166.139 177.993,163.806 177.5,161.5C 176.022,161.238 174.689,161.571 173.5,162.5C 174.428,163.768 174.595,165.101 174,166.5C 173.667,165.833 173.333,165.167 173,164.5C 172.792,162.141 172.626,159.974 172.5,158C 174.255,157.28 175.089,156.113 175,154.5C 173.229,155.304 171.729,156.471 170.5,158C 172.653,163.848 170.653,165.848 164.5,164C 165.765,162.663 166.265,161.163 166,159.5C 164.833,161.167 163.667,162.833 162.5,164.5C 161.376,163.086 160.376,161.586 159.5,160C 158.167,160.333 156.833,160.667 155.5,161C 156.056,160.617 156.389,160.117 156.5,159.5C 154.499,154.658 151.499,150.491 147.5,147C 148.016,143.987 147.016,141.32 144.5,139C 146.095,139.617 147.428,139.284 148.5,138C 146.197,136.115 145.03,133.615 145,130.5C 144.333,131.167 143.667,131.833 143,132.5C 140.667,131.167 139.667,131.833 140,134.5C 144.773,137.002 144.607,137.835 139.5,137C 139.833,137.333 140.167,137.667 140.5,138C 139.809,139.067 139.309,140.234 139,141.5C 138.667,139.167 138.333,136.833 138,134.5C 135.968,136.768 134.635,136.102 134,132.5C 133.716,134.886 132.716,135.552 131,134.5C 130.544,135.744 131.044,136.577 132.5,137C 131.584,137.374 130.75,137.874 130,138.5C 128.561,136.725 127.561,134.725 127,132.5C 126.985,134.791 126.818,136.958 126.5,139C 128.037,140.11 128.703,141.61 128.5,143.5C 126.876,143.36 125.71,144.027 125,145.5C 124.5,145 124,144.5 123.5,144C 122.578,140.744 122.578,137.577 123.5,134.5C 122.051,136.611 121.051,138.944 120.5,141.5C 119.726,142.711 118.893,142.711 118,141.5C 117.781,142.938 117.281,144.271 116.5,145.5C 116.167,145.167 115.833,144.833 115.5,144.5C 116.213,142.224 116.713,139.891 117,137.5C 117.333,138.167 117.667,138.833 118,139.5C 118.448,137.776 119.282,137.109 120.5,137.5C 119.335,136.416 118.002,135.583 116.5,135C 117.451,134.282 117.617,133.449 117,132.5C 112.952,136.88 109.285,141.546 106,146.5C 105.51,147.793 105.343,149.127 105.5,150.5C 106.867,152.187 107.867,153.853 108.5,155.5C 106.959,157.204 105.625,159.037 104.5,161C 104.645,161.772 104.978,162.439 105.5,163C 106.978,164.193 108.312,164.693 109.5,164.5C 104.805,165.65 102.638,163.65 103,158.5C 102.228,159.849 101.061,160.682 99.5,161C 100.448,161.483 101.448,161.649 102.5,161.5C 102.785,163.288 102.452,164.955 101.5,166.5C 98.0914,168.219 97.758,170.386 100.5,173C 100.167,173.5 99.8333,174 99.5,174.5C 98.4096,173.273 97.0762,172.44 95.5,172C 98.1667,171.333 98.1667,170.667 95.5,170C 96.428,169.612 97.0946,168.945 97.5,168C 96.9221,166.189 96.4221,164.355 96,162.5C 95.51,163.793 95.3433,165.127 95.5,166.5C 92.2862,167.388 89.2862,168.721 86.5,170.5C 85.36,167.975 84.6933,165.308 84.5,162.5C 85.552,162.649 86.552,162.483 87.5,162C 85.3825,161.74 83.7158,160.74 82.5,159C 83.5762,157.274 83.7429,155.441 83,153.5C 82.3581,155.762 81.5248,157.929 80.5,160C 79.365,160.749 78.365,160.583 77.5,159.5C 80.1667,158.5 80.1667,157.5 77.5,156.5C 76.8076,157.025 76.3076,157.692 76,158.5C 75.6924,157.692 75.1924,157.025 74.5,156.5C 71.8477,160.522 71.0144,160.188 72,155.5C 70.6598,156.868 69.3264,158.201 68,159.5C 67.6249,158.027 66.4583,156.527 64.5,155C 65.9961,154.493 67.1627,154.993 68,156.5C 69.2547,155.789 70.4214,154.956 71.5,154C 69.8204,153.966 68.3204,153.799 67,153.5C 67.2179,151.413 67.0512,149.413 66.5,147.5C 63.0219,149.54 59.3553,150.04 55.5,149C 57.8483,149.11 59.3483,150.277 60,152.5C 61.1939,151.57 62.5272,150.903 64,150.5C 65.2575,150.85 65.5908,151.517 65,152.5C 63.3669,154.977 61.2002,156.81 58.5,158C 54.4145,159.504 50.4145,160.838 46.5,162C 49.0519,159.016 52.0519,157.516 55.5,157.5C 59.9976,152.326 59.1643,151.326 53,154.5C 49.9122,153.746 49.7455,152.58 52.5,151C 51.1667,150.333 51.1667,149.667 52.5,149C 51.8333,148.667 51.1667,148.333 50.5,148C 51.2567,146.488 52.2567,145.154 53.5,144C 52.0039,143.493 50.8373,143.993 50,145.5C 49.2496,144.874 48.4162,144.374 47.5,144C 49.9042,143.492 50.5709,142.325 49.5,140.5C 50.376,139.749 51.376,139.249 52.5,139C 50.8455,138.392 49.1789,137.892 47.5,137.5C 47.5,137.167 47.5,136.833 47.5,136.5C 52.0485,135.912 56.7152,135.912 61.5,136.5C 61.5,137.5 61.5,138.5 61.5,139.5C 63.46,140.138 65.2933,140.138 67,139.5C 67.3742,140.416 67.8742,141.25 68.5,142C 66.4049,142.556 66.2382,143.056 68,143.5C 69.4203,141.745 70.9203,141.079 72.5,141.5C 71.9747,140.808 71.3081,140.308 70.5,140C 71.3402,138.334 70.8402,138.167 69,139.5C 67.1859,138.149 67.5192,137.149 70,136.5C 71.3876,137.554 72.8876,137.72 74.5,137C 73.6721,136.085 72.6721,135.419 71.5,135C 71.8333,134.667 72.1667,134.333 72.5,134C 69.4869,133.498 66.4869,132.998 63.5,132.5C 65.8285,130.905 68.4952,129.905 71.5,129.5C 73.5104,130.362 75.5104,130.862 77.5,131C 76.1667,130 74.8333,129 73.5,128C 73.8333,127.667 74.1667,127.333 74.5,127C 73.1667,127 71.8333,127 70.5,127C 72.5766,125.295 74.91,124.128 77.5,123.5C 79.4961,124.913 81.6628,126.246 84,127.5C 88.898,126.906 93.7313,127.573 98.5,129.5C 98.3893,128.883 98.056,128.383 97.5,128C 92.3047,126.934 87.3047,125.434 82.5,123.5C 82.6667,123.167 82.8333,122.833 83,122.5C 86.0689,125.137 88.2356,125.137 89.5,122.5C 90.4776,122.977 91.3109,123.643 92,124.5C 92.3333,123.833 92.6667,123.167 93,122.5C 93.6667,126.5 94.3333,126.5 95,122.5C 97.7372,123.61 100.571,123.777 103.5,123C 100.768,122.587 98.1013,121.92 95.5,121C 94.1667,119.667 94.1667,118.333 95.5,117C 93.7141,115.707 92.0474,115.207 90.5,115.5C 95.1196,114.507 99.7863,114.173 104.5,114.5C 103.392,116.695 103.559,118.695 105,120.5C 106.113,119.289 107.28,119.289 108.5,120.5C 109.5,120.167 110.167,119.5 110.5,118.5C 109.091,118.346 107.424,118.179 105.5,118C 109.361,117.431 109.361,116.598 105.5,115.5C 106,115.167 106.5,114.833 107,114.5C 111.832,114.758 116.666,115.925 121.5,118C 118.388,118.851 118.054,120.017 120.5,121.5C 119.31,124.174 118.476,126.84 118,129.5C 119.935,125.847 121.768,122.18 123.5,118.5C 130.392,115.562 136.725,111.895 142.5,107.5C 145.354,107.076 148.021,106.076 150.5,104.5C 151.086,104.709 151.586,105.043 152,105.5C 154.765,102.867 157.931,100.867 161.5,99.5 Z" data-index="38"></path></g>
<g><path style="opacity:1" fill="#eef6d2" d="M 248.5,95.5 C 246.465,101.615 244.965,107.948 244,114.5C 240.761,118.317 237.095,121.651 233,124.5C 231.044,127.576 229.211,130.742 227.5,134C 224.277,137.02 220.943,139.853 217.5,142.5C 216.311,143.429 214.978,143.762 213.5,143.5C 226.212,132.108 236.546,118.775 244.5,103.5C 245.467,100.566 246.8,97.8996 248.5,95.5 Z" data-index="39"></path></g>
<g><path style="opacity:1" fill="#7ead49" d="M 98.5,129.5 C 101.757,128.538 104.757,127.038 107.5,125C 108.5,124.333 109.5,124.333 110.5,125C 104.658,128.421 98.6581,131.588 92.5,134.5C 91.3044,134.154 91.3044,133.654 92.5,133C 94.7274,132.059 96.7274,130.892 98.5,129.5 Z" data-index="40"></path></g>
<g><path style="opacity:1" fill="#f4f8e1" d="M 46.5,134.5 C 46.3284,135.492 46.6618,136.158 47.5,136.5C 47.5,136.833 47.5,137.167 47.5,137.5C 46.0955,143.101 43.7622,148.101 40.5,152.5C 40.3367,150.143 40.5034,147.81 41,145.5C 42.188,141.387 44.0214,137.72 46.5,134.5 Z" data-index="41"></path></g>
<g><path style="opacity:1" fill="#568120" d="M 159.5,133.5 C 161.086,134.413 162.586,134.413 164,133.5C 164.167,134 164.333,134.5 164.5,135C 163.305,136.533 163.305,138.033 164.5,139.5C 164.154,140.696 163.654,140.696 163,139.5C 162.51,140.793 162.343,142.127 162.5,143.5C 165.945,144.906 169.445,146.239 173,147.5C 173.456,146.256 172.956,145.423 171.5,145C 177.543,145.776 177.876,144.609 172.5,141.5C 173.326,140.549 173.492,139.549 173,138.5C 171.667,139.167 170.667,140.167 170,141.5C 169.293,139.919 168.46,138.419 167.5,137C 168.744,136.544 169.577,137.044 170,138.5C 172.789,135.871 174.789,136.538 176,140.5C 175.923,139.262 176.089,138.262 176.5,137.5C 177.364,139.197 178.697,140.363 180.5,141C 179.346,141.914 179.513,142.747 181,143.5C 181.754,140.361 182.754,137.361 184,134.5C 184.071,136.109 183.904,137.776 183.5,139.5C 183.709,140.994 184.376,142.161 185.5,143C 182.634,144.198 180.8,146.365 180,149.5C 179.667,148.5 179.333,147.5 179,146.5C 177.933,147.191 176.766,147.691 175.5,148C 176.167,148.333 176.833,148.667 177.5,149C 176.167,149.667 176.167,150.333 177.5,151C 175.884,151.615 174.551,152.615 173.5,154C 172.451,154.492 171.451,154.326 170.5,153.5C 169.304,153.846 169.304,154.346 170.5,155C 168.782,155.346 167.115,155.846 165.5,156.5C 163.714,153.355 162.88,150.022 163,146.5C 164,149.167 165,151.833 166,154.5C 166.048,151.122 165.548,147.789 164.5,144.5C 162.876,144.64 161.71,143.973 161,142.5C 160,143.5 159,144.5 158,145.5C 157.833,145.167 157.667,144.833 157.5,144.5C 159.667,142.17 161.334,139.503 162.5,136.5C 161.726,135.289 160.893,135.289 160,136.5C 158.272,135.648 158.105,134.648 159.5,133.5 Z" data-index="42"></path></g>
<g><path style="opacity:1" fill="#5a841d" d="M 203.5,150.5 C 202.527,151.791 201.527,151.791 200.5,150.5C 199.143,152.794 197.643,155.128 196,157.5C 195.027,155.608 194.36,153.608 194,151.5C 192.798,153.553 192.464,155.553 193,157.5C 192.667,157.167 192.333,156.833 192,156.5C 191.692,157.308 191.192,157.975 190.5,158.5C 188.803,157.636 187.637,156.303 187,154.5C 185.754,155.772 184.587,156.105 183.5,155.5C 184.685,154.147 186.019,152.98 187.5,152C 186.5,151.667 185.5,151.333 184.5,151C 186.557,150.695 188.557,150.695 190.5,151C 188.787,149.622 187.453,147.955 186.5,146C 187.167,145.667 187.833,145.333 188.5,145C 187.484,143.323 186.484,141.657 185.5,140C 187.217,137.165 188.05,134.331 188,131.5C 188.741,132.641 189.575,132.641 190.5,131.5C 191.5,132.833 192.5,134.167 193.5,135.5C 193.154,136.696 192.654,136.696 192,135.5C 191.333,137.167 191.333,138.833 192,140.5C 192.308,139.692 192.808,139.025 193.5,138.5C 194.281,139.729 194.781,141.062 195,142.5C 195.333,141.833 195.667,141.167 196,140.5C 196.251,142.433 196.751,144.266 197.5,146C 196.328,146.419 195.328,147.085 194.5,148C 195.449,148.617 196.282,148.451 197,147.5C 198,150.167 199,150.167 200,147.5C 200.985,148.814 202.152,149.814 203.5,150.5 Z" data-index="43"></path></g>
<g><path style="opacity:1" fill="#ecf3cc" d="M 213.5,143.5 C 213.457,146.088 212.457,148.254 210.5,150C 206.841,152.954 203.174,155.954 199.5,159C 198.552,159.483 197.552,159.649 196.5,159.5C 199.239,156.767 201.573,153.767 203.5,150.5C 205.38,150.771 206.713,150.104 207.5,148.5C 209.5,146.833 211.5,145.167 213.5,143.5 Z" data-index="44"></path></g>
<g><path style="opacity:1" fill="#3e6a11" d="M 156.5,159.5 C 154.726,158.119 153.226,158.452 152,160.5C 151.444,158.405 150.944,158.238 150.5,160C 151.153,163.796 152.486,167.296 154.5,170.5C 154.009,173.736 152.676,174.236 150.5,172C 151.308,171.692 151.975,171.192 152.5,170.5C 151.359,169.575 151.359,168.741 152.5,168C 151.256,167.544 150.423,168.044 150,169.5C 148.494,166.526 146.828,166.193 145,168.5C 144.5,168 144,167.5 143.5,167C 145.95,161.334 145.283,161.168 141.5,166.5C 141.586,165.504 141.252,164.671 140.5,164C 142.303,163.363 143.636,162.197 144.5,160.5C 142.183,158.684 140.016,156.684 138,154.5C 137.493,155.996 137.993,157.163 139.5,158C 138.551,158.617 137.718,158.451 137,157.5C 136.667,158.167 136.333,158.833 136,159.5C 133.641,156.962 132.141,157.629 131.5,161.5C 131.251,160.418 131.085,159.085 131,157.5C 129.273,161.449 127.773,161.783 126.5,158.5C 126.709,157.914 127.043,157.414 127.5,157C 126.333,156.5 125.5,155.667 125,154.5C 123.383,155.536 123.216,156.703 124.5,158C 122.912,160.043 121.579,159.876 120.5,157.5C 122.027,155.807 123.36,153.973 124.5,152C 124.167,151.833 123.833,151.667 123.5,151.5C 122.52,152.981 121.353,154.315 120,155.5C 119.949,152.773 121.116,150.606 123.5,149C 122.924,147.286 121.757,146.119 120,145.5C 119.552,147.224 118.718,147.891 117.5,147.5C 118.609,148.965 118.109,149.965 116,150.5C 114.863,149.636 113.53,148.636 112,147.5C 112.617,149.095 112.284,150.428 111,151.5C 110.333,150.167 109.667,148.833 109,147.5C 107.887,148.76 107.72,149.927 108.5,151C 107.423,151.47 106.423,151.303 105.5,150.5C 105.343,149.127 105.51,147.793 106,146.5C 109.285,141.546 112.952,136.88 117,132.5C 117.617,133.449 117.451,134.282 116.5,135C 118.002,135.583 119.335,136.416 120.5,137.5C 119.282,137.109 118.448,137.776 118,139.5C 117.667,138.833 117.333,138.167 117,137.5C 116.713,139.891 116.213,142.224 115.5,144.5C 115.833,144.833 116.167,145.167 116.5,145.5C 117.281,144.271 117.781,142.938 118,141.5C 118.893,142.711 119.726,142.711 120.5,141.5C 121.051,138.944 122.051,136.611 123.5,134.5C 122.578,137.577 122.578,140.744 123.5,144C 124,144.5 124.5,145 125,145.5C 125.71,144.027 126.876,143.36 128.5,143.5C 128.703,141.61 128.037,140.11 126.5,139C 126.818,136.958 126.985,134.791 127,132.5C 127.561,134.725 128.561,136.725 130,138.5C 130.75,137.874 131.584,137.374 132.5,137C 131.044,136.577 130.544,135.744 131,134.5C 132.716,135.552 133.716,134.886 134,132.5C 134.635,136.102 135.968,136.768 138,134.5C 138.333,136.833 138.667,139.167 139,141.5C 139.309,140.234 139.809,139.067 140.5,138C 140.167,137.667 139.833,137.333 139.5,137C 144.607,137.835 144.773,137.002 140,134.5C 139.667,131.833 140.667,131.167 143,132.5C 143.667,131.833 144.333,131.167 145,130.5C 145.03,133.615 146.197,136.115 148.5,138C 147.428,139.284 146.095,139.617 144.5,139C 147.016,141.32 148.016,143.987 147.5,147C 151.499,150.491 154.499,154.658 156.5,159.5 Z" data-index="45"></path></g>
<g><path style="opacity: 1;" fill="#4c7619" d="M 47.5,137.5 C 49.1789,137.892 50.8455,138.392 52.5,139C 51.376,139.249 50.376,139.749 49.5,140.5C 50.5709,142.325 49.9042,143.492 47.5,144C 48.4162,144.374 49.2496,144.874 50,145.5C 50.8373,143.993 52.0039,143.493 53.5,144C 52.2567,145.154 51.2567,146.488 50.5,148C 51.1667,148.333 51.8333,148.667 52.5,149C 51.1667,149.667 51.1667,150.333 52.5,151C 49.7455,152.58 49.9122,153.746 53,154.5C 59.1643,151.326 59.9976,152.326 55.5,157.5C 52.0519,157.516 49.0519,159.016 46.5,162C 50.4145,160.838 54.4145,159.504 58.5,158C 61.2002,156.81 63.3669,154.977 65,152.5C 65.5908,151.517 65.2575,150.85 64,150.5C 62.5272,150.903 61.1939,151.57 60,152.5C 59.3483,150.277 57.8483,149.11 55.5,149C 59.3553,150.04 63.0219,149.54 66.5,147.5C 67.0512,149.413 67.2179,151.413 67,153.5C 68.3204,153.799 69.8204,153.966 71.5,154C 70.4214,154.956 69.2547,155.789 68,156.5C 67.1627,154.993 65.9961,154.493 64.5,155C 66.4583,156.527 67.6249,158.027 68,159.5C 69.3264,158.201 70.6598,156.868 72,155.5C 71.0144,160.188 71.8477,160.522 74.5,156.5C 75.1924,157.025 75.6924,157.692 76,158.5C 76.3076,157.692 76.8076,157.025 77.5,156.5C 80.1667,157.5 80.1667,158.5 77.5,159.5C 78.365,160.583 79.365,160.749 80.5,160C 81.5248,157.929 82.3581,155.762 83,153.5C 83.7429,155.441 83.5762,157.274 82.5,159C 83.7158,160.74 85.3825,161.74 87.5,162C 86.552,162.483 85.552,162.649 84.5,162.5C 84.6933,165.308 85.36,167.975 86.5,170.5C 89.2862,168.721 92.2862,167.388 95.5,166.5C 95.3433,165.127 95.51,163.793 96,162.5C 96.4221,164.355 96.9221,166.189 97.5,168C 97.0946,168.945 96.428,169.612 95.5,170C 98.1667,170.667 98.1667,171.333 95.5,172C 97.0762,172.44 98.4096,173.273 99.5,174.5C 99.8333,174 100.167,173.5 100.5,173C 97.758,170.386 98.0914,168.219 101.5,166.5C 102.452,164.955 102.785,163.288 102.5,161.5C 101.448,161.649 100.448,161.483 99.5,161C 101.061,160.682 102.228,159.849 103,158.5C 102.638,163.65 104.805,165.65 109.5,164.5C 108.312,164.693 106.978,164.193 105.5,163C 104.978,162.439 104.645,161.772 104.5,161C 105.625,159.037 106.959,157.204 108.5,155.5C 107.867,153.853 106.867,152.187 105.5,150.5C 106.423,151.303 107.423,151.47 108.5,151C 107.72,149.927 107.887,148.76 109,147.5C 109.667,148.833 110.333,150.167 111,151.5C 112.284,150.428 112.617,149.095 112,147.5C 113.53,148.636 114.863,149.636 116,150.5C 118.109,149.965 118.609,148.965 117.5,147.5C 118.718,147.891 119.552,147.224 120,145.5C 121.757,146.119 122.924,147.286 123.5,149C 121.116,150.606 119.949,152.773 120,155.5C 121.353,154.315 122.52,152.981 123.5,151.5C 123.833,151.667 124.167,151.833 124.5,152C 123.36,153.973 122.027,155.807 120.5,157.5C 121.579,159.876 122.912,160.043 124.5,158C 123.216,156.703 123.383,155.536 125,154.5C 125.5,155.667 126.333,156.5 127.5,157C 127.043,157.414 126.709,157.914 126.5,158.5C 127.773,161.783 129.273,161.449 131,157.5C 131.085,159.085 131.251,160.418 131.5,161.5C 132.141,157.629 133.641,156.962 136,159.5C 136.333,158.833 136.667,158.167 137,157.5C 137.718,158.451 138.551,158.617 139.5,158C 137.993,157.163 137.493,155.996 138,154.5C 140.016,156.684 142.183,158.684 144.5,160.5C 143.636,162.197 142.303,163.363 140.5,164C 141.252,164.671 141.586,165.504 141.5,166.5C 140.411,168.117 138.744,168.95 136.5,169C 138.433,169.251 140.266,169.751 142,170.5C 143.184,168.346 144.35,168.68 145.5,171.5C 144.975,172.192 144.308,172.692 143.5,173C 143.616,174.268 143.949,175.602 144.5,177C 144.167,177.167 143.833,177.333 143.5,177.5C 142.833,176.5 142.167,175.5 141.5,174.5C 140.41,175.391 140.41,176.391 141.5,177.5C 143.743,178.474 146.076,178.808 148.5,178.5C 146.513,179.343 144.346,180.01 142,180.5C 138.053,180.615 134.053,180.282 130,179.5C 127.953,180.609 125.787,181.276 123.5,181.5C 123.719,180.325 123.386,179.325 122.5,178.5C 120.833,179.167 119.167,179.833 117.5,180.5C 114.904,179.787 112.237,179.787 109.5,180.5C 109.029,179.099 108.362,177.766 107.5,176.5C 103.491,176.827 99.4914,177.16 95.5,177.5C 95.6716,176.508 95.3382,175.842 94.5,175.5C 84.9118,172.609 75.2451,169.609 65.5,166.5C 64.5836,166.543 63.9169,166.876 63.5,167.5C 63.1667,167.5 62.8333,167.5 62.5,167.5C 53.436,164.971 44.436,165.304 35.5,168.5C 32.8127,168.664 30.146,168.497 27.5,168C 32.901,163.678 37.2343,158.512 40.5,152.5C 43.7622,148.101 46.0955,143.101 47.5,137.5 Z" data-index="46"></path></g>
<g><path style="opacity:1" fill="#e0efbc" d="M 62.5,167.5 C 53.4818,167.448 44.4818,167.782 35.5,168.5C 44.436,165.304 53.436,164.971 62.5,167.5 Z" data-index="47"></path></g>
<g><path style="opacity:1" fill="#eaf4cf" d="M 94.5,175.5 C 87.4828,174.836 80.4828,173.836 73.5,172.5C 70.0591,170.837 66.7258,169.171 63.5,167.5C 63.9169,166.876 64.5836,166.543 65.5,166.5C 75.2451,169.609 84.9118,172.609 94.5,175.5 Z" data-index="48"></path></g>
<g><path style="opacity: 1;" fill="#557f1b" d="M 178.5,168.5 C 177.636,169.688 176.636,170.855 175.5,172C 172.412,172.579 169.745,173.913 167.5,176C 166.101,176.595 164.768,176.428 163.5,175.5C 160.074,176.711 156.741,178.044 153.5,179.5C 152.522,179.023 151.689,178.357 151,177.5C 150.329,178.252 149.496,178.586 148.5,178.5C 146.076,178.808 143.743,178.474 141.5,177.5C 140.41,176.391 140.41,175.391 141.5,174.5C 142.167,175.5 142.833,176.5 143.5,177.5C 143.833,177.333 144.167,177.167 144.5,177C 143.949,175.602 143.616,174.268 143.5,173C 144.308,172.692 144.975,172.192 145.5,171.5C 144.35,168.68 143.184,168.346 142,170.5C 140.266,169.751 138.433,169.251 136.5,169C 138.744,168.95 140.411,168.117 141.5,166.5C 145.283,161.168 145.95,161.334 143.5,167C 144,167.5 144.5,168 145,168.5C 146.828,166.193 148.494,166.526 150,169.5C 150.423,168.044 151.256,167.544 152.5,168C 151.359,168.741 151.359,169.575 152.5,170.5C 151.975,171.192 151.308,171.692 150.5,172C 152.676,174.236 154.009,173.736 154.5,170.5C 152.486,167.296 151.153,163.796 150.5,160C 150.944,158.238 151.444,158.405 152,160.5C 153.226,158.452 154.726,158.119 156.5,159.5C 156.389,160.117 156.056,160.617 155.5,161C 156.833,160.667 158.167,160.333 159.5,160C 160.376,161.586 161.376,163.086 162.5,164.5C 163.667,162.833 164.833,161.167 166,159.5C 166.265,161.163 165.765,162.663 164.5,164C 170.653,165.848 172.653,163.848 170.5,158C 171.729,156.471 173.229,155.304 175,154.5C 175.089,156.113 174.255,157.28 172.5,158C 172.626,159.974 172.792,162.141 173,164.5C 173.333,165.167 173.667,165.833 174,166.5C 174.595,165.101 174.428,163.768 173.5,162.5C 174.689,161.571 176.022,161.238 177.5,161.5C 177.993,163.806 178.326,166.139 178.5,168.5 Z" data-index="49"></path></g>
<g><path style="opacity:1" fill="#ebf7ca" d="M 109.5,180.5 C 105.973,180.496 102.473,180.163 99,179.5C 97.3189,179.392 96.1522,178.725 95.5,177.5C 99.4914,177.16 103.491,176.827 107.5,176.5C 108.362,177.766 109.029,179.099 109.5,180.5 Z" data-index="50"></path></g>
<g><path style="opacity: 1;" fill="#edf5d0" d="M 195.5,159.5 C 195.657,160.873 195.49,162.207 195,163.5C 191.62,164.871 188.787,167.038 186.5,170C 182.012,169.652 178.345,171.152 175.5,174.5C 170.379,176.925 165.046,178.925 159.5,180.5C 143.544,182.332 127.544,182.832 111.5,182C 110.584,181.722 109.918,181.222 109.5,180.5C 112.237,179.787 114.904,179.787 117.5,180.5C 119.167,179.833 120.833,179.167 122.5,178.5C 123.386,179.325 123.719,180.325 123.5,181.5C 125.787,181.276 127.953,180.609 130,179.5C 134.053,180.282 138.053,180.615 142,180.5C 144.346,180.01 146.513,179.343 148.5,178.5C 149.496,178.586 150.329,178.252 151,177.5C 151.689,178.357 152.522,179.023 153.5,179.5C 156.741,178.044 160.074,176.711 163.5,175.5C 164.768,176.428 166.101,176.595 167.5,176C 169.745,173.913 172.412,172.579 175.5,172C 176.636,170.855 177.636,169.688 178.5,168.5C 179.423,169.303 180.423,169.47 181.5,169C 185.909,166.133 189.909,162.799 193.5,159C 194.437,158.308 195.103,158.475 195.5,159.5 Z" data-index="51"></path></g>
<g></g>
<g><path style="opacity: 1; visibility: hidden;" fill="#7a7a7a" d="M 99.5,222.5 C 99.6716,223.492 99.3382,224.158 98.5,224.5C 95.9028,224.279 95.9028,223.779 98.5,223C 97.0267,222.29 96.3601,221.124 96.5,219.5C 97.552,219.351 98.552,219.517 99.5,220C 98.4019,220.77 98.4019,221.603 99.5,222.5 Z" data-index="53"></path></g>
<g></g>
<g><path style="opacity: 1; visibility: hidden; fill: rgb(121, 40, 202);" fill="#f2f2f2" d="M 149.5,219.5 C 147.707,222.987 148.707,224.487 152.5,224C 149.875,222.624 149.875,221.458 152.5,220.5C 152.833,220.5 153.167,220.5 153.5,220.5C 154.498,220.344 155.498,220.844 156.5,222C 155.747,223.487 154.914,223.654 154,222.5C 153.409,223.483 153.743,224.15 155,224.5C 156.235,223.385 157.402,223.385 158.5,224.5C 159.624,219.279 160.458,219.279 161,224.5C 162,219.167 163,219.167 164,224.5C 164.49,223.207 164.657,221.873 164.5,220.5C 168.224,220.874 171.057,219.208 173,215.5C 173.232,216.737 173.732,217.737 174.5,218.5C 174.56,217.957 174.893,217.624 175.5,217.5C 176.176,218.602 176.842,219.602 177.5,220.5C 178.09,224.92 180.09,225.586 183.5,222.5C 184.478,222.977 185.311,223.643 186,224.5C 186.167,223.5 186.333,222.5 186.5,221.5C 186.36,219.97 185.693,218.97 184.5,218.5C 184.413,215.402 184.913,215.068 186,217.5C 187.65,214.894 189.15,214.894 190.5,217.5C 188.278,217.559 187.278,218.725 187.5,221C 187.424,223.756 188.757,224.923 191.5,224.5C 191.5,223.5 191.5,222.5 191.5,221.5C 191.833,221.5 192.167,221.5 192.5,221.5C 194.124,221.36 195.29,222.027 196,223.5C 196.464,222.906 196.631,222.239 196.5,221.5C 196.833,221.5 197.167,221.5 197.5,221.5C 197.328,222.492 197.662,223.158 198.5,223.5C 199.209,224.404 200.209,224.737 201.5,224.5C 201.5,223.5 201.5,222.5 201.5,221.5C 201.833,221.5 202.167,221.5 202.5,221.5C 206.236,221.66 206.236,222.493 202.5,224C 203,224.167 203.5,224.333 204,224.5C 206.567,223.885 209.234,223.885 212,224.5C 213.5,224.333 215,224.167 216.5,224C 215.833,223.667 215.167,223.333 214.5,223C 217.359,220.28 217.026,218.614 213.5,218C 214.999,218.838 215.332,219.671 214.5,220.5C 213.351,220.209 212.684,219.376 212.5,218C 212.833,217.167 213.167,216.333 213.5,215.5C 214.833,215.833 216.167,216.167 217.5,216.5C 217.88,218.021 218.046,219.687 218,221.5C 221.167,222.667 221.333,224.167 218.5,226C 220.409,226.448 221.576,225.615 222,223.5C 222.613,225.495 222.113,227.162 220.5,228.5C 178.833,228.5 137.167,228.5 95.5,228.5C 96.7888,227.363 97.7888,226.03 98.5,224.5C 99.3382,224.158 99.6716,223.492 99.5,222.5C 99.8333,222.5 100.167,222.5 100.5,222.5C 100.369,223.376 100.702,224.043 101.5,224.5C 102.776,219.318 103.443,219.318 103.5,224.5C 105.735,224.795 107.735,224.461 109.5,223.5C 109.833,223.5 110.167,223.5 110.5,223.5C 111.423,224.303 112.423,224.47 113.5,224C 112.269,222.817 112.269,221.651 113.5,220.5C 114.167,221.833 114.833,223.167 115.5,224.5C 115.833,224.333 116.167,224.167 116.5,224C 115.272,222.51 115.272,221.01 116.5,219.5C 116.369,218.761 116.536,218.094 117,217.5C 117.278,218.416 117.778,219.082 118.5,219.5C 115.985,222.306 116.651,223.806 120.5,224C 119.833,223.667 119.167,223.333 118.5,223C 119.756,222.583 120.423,221.75 120.5,220.5C 121.167,220.167 121.833,219.833 122.5,219.5C 122.492,225.208 122.992,225.541 124,220.5C 125.688,221.325 125.855,222.325 124.5,223.5C 125.689,224.429 127.022,224.762 128.5,224.5C 128.64,222.876 127.973,221.71 126.5,221C 127.056,220.617 127.389,220.117 127.5,219.5C 128.167,219.5 128.833,219.5 129.5,219.5C 129.215,221.288 129.548,222.955 130.5,224.5C 130.833,224.333 131.167,224.167 131.5,224C 130.167,222.667 130.167,221.333 131.5,220C 130.956,219.283 130.289,218.783 129.5,218.5C 130.962,217.529 132.295,217.862 133.5,219.5C 131.889,221.833 132.389,223.5 135,224.5C 135.945,224.095 136.612,223.428 137,222.5C 137.837,224.007 139.004,224.507 140.5,224C 139.272,222.51 139.272,221.01 140.5,219.5C 140.833,219.5 141.167,219.5 141.5,219.5C 142.152,225.871 143.485,225.871 145.5,219.5C 146.207,217.866 147.373,216.532 149,215.5C 150.511,216.564 150.677,217.897 149.5,219.5 Z" data-index="55"></path></g>
<g></g>
<g><path style="opacity: 1; visibility: hidden;" fill="#5d5d5d" d="M 181.5,219.5 C 180.5,219.5 179.5,219.5 178.5,219.5C 178.312,221.103 178.812,222.437 180,223.5C 181.491,221.996 183.324,221.163 185.5,221C 184.906,220.536 184.239,220.369 183.5,220.5C 183.833,219.833 184.167,219.167 184.5,218.5C 185.693,218.97 186.36,219.97 186.5,221.5C 186.333,222.5 186.167,223.5 186,224.5C 185.311,223.643 184.478,222.977 183.5,222.5C 180.09,225.586 178.09,224.92 177.5,220.5C 178.244,217.116 179.577,216.782 181.5,219.5 Z" data-index="57"></path></g>
<g></g>
<g><path style="opacity: 1; visibility: hidden;" fill="#9e9e9e" d="M 127.5,219.5 C 127.389,220.117 127.056,220.617 126.5,221C 127.973,221.71 128.64,222.876 128.5,224.5C 127.022,224.762 125.689,224.429 124.5,223.5C 125.855,222.325 125.688,221.325 124,220.5C 122.992,225.541 122.492,225.208 122.5,219.5C 124.234,218.438 125.901,218.438 127.5,219.5 Z" data-index="59"></path></g>
<g><path style="opacity:1" fill="#f6f6f6" d="M 200.5,221.5 C 200.5,222.833 199.833,223.5 198.5,223.5C 198.5,222.167 199.167,221.5 200.5,221.5 Z" data-index="60"></path></g>
<g></g>
<g><path style="opacity: 1; visibility: hidden;" fill="#737373" d="M 149.5,219.5 C 150.791,219.263 151.791,219.596 152.5,220.5C 149.875,221.458 149.875,222.624 152.5,224C 148.707,224.487 147.707,222.987 149.5,219.5 Z" data-index="62"></path></g>
<g><path style="opacity:1" fill="#3f3f3f" d="M 129.5,218.5 C 130.289,218.783 130.956,219.283 131.5,220C 130.167,221.333 130.167,222.667 131.5,224C 131.167,224.167 130.833,224.333 130.5,224.5C 129.548,222.955 129.215,221.288 129.5,219.5C 129.5,219.167 129.5,218.833 129.5,218.5 Z" data-index="63"></path></g>
<g></g>
<g><path style="opacity: 1; visibility: hidden;" fill="#717171" d="M 214.5,220.5 C 215.332,219.671 214.999,218.838 213.5,218C 217.026,218.614 217.359,220.28 214.5,223C 215.167,223.333 215.833,223.667 216.5,224C 215,224.167 213.5,224.333 212,224.5C 209.234,223.885 206.567,223.885 204,224.5C 203.5,224.333 203,224.167 202.5,224C 206.236,222.493 206.236,221.66 202.5,221.5C 202.5,220.167 202.5,218.833 202.5,217.5C 203.552,217.351 204.552,217.517 205.5,218C 204.378,219.613 204.878,220.78 207,221.5C 207.026,218.895 208.193,217.729 210.5,218C 211.249,219.734 211.749,221.567 212,223.5C 213.045,222.627 213.878,221.627 214.5,220.5 Z" data-index="65"></path></g>
<g></g>
<g><path style="opacity: 1; visibility: hidden;" fill="#858585" d="M 133.5,219.5 C 135.882,220.546 138.215,220.546 140.5,219.5C 139.272,221.01 139.272,222.51 140.5,224C 139.004,224.507 137.837,224.007 137,222.5C 136.612,223.428 135.945,224.095 135,224.5C 132.389,223.5 131.889,221.833 133.5,219.5 Z" data-index="67"></path></g>
<g></g>
<g><path style="opacity: 1; visibility: hidden;" fill="#bbbbbb" d="M 181.5,219.5 C 182.167,219.833 182.833,220.167 183.5,220.5C 184.239,220.369 184.906,220.536 185.5,221C 183.324,221.163 181.491,221.996 180,223.5C 178.812,222.437 178.312,221.103 178.5,219.5C 179.5,219.5 180.5,219.5 181.5,219.5 Z" data-index="69"></path></g>
<g></g>
<g><path style="opacity: 1; visibility: hidden;" fill="#818181" d="M 190.5,217.5 C 191.234,218.708 191.567,220.041 191.5,221.5C 191.5,222.5 191.5,223.5 191.5,224.5C 188.757,224.923 187.424,223.756 187.5,221C 187.278,218.725 188.278,217.559 190.5,217.5 Z" data-index="71"></path></g>
</svg>